<?xml version="1.0" standalone="no"?>
<!DOCTYPE svg PUBLIC "-//W3C//DTD SVG 1.1//EN" "http://www.w3.org/Graphics/SVG/1.1/DTD/svg11.dtd" >
<svg xmlns="http://www.w3.org/2000/svg">
<metadata></metadata>
<defs>
<font id="gararegular" horiz-adv-x="598" >
<font-face units-per-em="2048" ascent="1638" descent="-410" />
<missing-glyph horiz-adv-x="512" />
<glyph horiz-adv-x="0" />
<glyph unicode="&#xd;" horiz-adv-x="512" />
<glyph unicode=" "  horiz-adv-x="512" />
<glyph unicode="&#x09;" horiz-adv-x="512" />
<glyph unicode="&#xa0;" horiz-adv-x="512" />
<glyph unicode="!" horiz-adv-x="430" d="M111 84q0 51 31.5 86t82.5 35t83 -35t32 -86t-32 -82t-83 -31q-49 0 -81.5 32t-32.5 81zM125 1264q0 59 100 59t101 -59q0 -23 -15 -183l-59 -651q0 -20 -27 -20t-26 20l-60 651q-14 160 -14 183z" />
<glyph unicode="&#x22;" horiz-adv-x="798" d="M162 1384q0 49 63 50h49q63 0 64 -50q0 -16 -10 -79l-52 -324q-3 -18 -26 -18t-27 18l-51 324q-10 63 -10 79zM489 1384q0 49 64 50h49q63 0 64 -50q0 -16 -11 -79l-51 -324q-3 -18 -26 -18t-27 18l-51 324q-10 63 -11 79z" />
<glyph unicode="#" horiz-adv-x="966" d="M25 420q0 18 12 46t26 28h209l88 331h-200q-20 0 -21 27q0 18 12.5 47t26.5 29h209l88 336q4 14 66 14q20 0 20 -18q0 -4 -88 -332h238l88 336q4 14 67 14q20 0 21 -18q0 -4 -88 -332h180q20 0 20 -31q0 -18 -10 -45t-26 -27h-193l-90 -331h176q20 0 21 -29 q0 -18 -13 -43q-12 -31 -26 -31h-187l-100 -371q-4 -14 -57 -14q-20 0 -21 19q0 4 96 366h-243l-101 -371q-4 -14 -55 -14q-20 0 -20 19q0 4 96 366h-201q-20 0 -20 29zM354 494h242l88 331h-240z" />
<glyph unicode="$" horiz-adv-x="968" d="M109 297q0 55 28 55l6 -2q12 -2 39 -61q33 -74 74 -119q66 -72 170 -100l68 546q-143 72 -211 140q-96 96 -97 227q0 156 123 244q104 76 269 84l18 149q2 20 35 21q37 0 33 -25l-19 -147q193 -10 209 -41q10 -20 24.5 -94t14.5 -101q0 -41 -23 -41q-18 0 -30.5 24.5 t-20.5 47.5q-57 106 -180 141l-61 -495q166 -86 229 -150q102 -100 102 -246q0 -170 -131 -266q-115 -84 -293 -88l-20 -182q-4 -21 -37 -21q-35 0 -31 25l23 182q-57 4 -131 21q-98 23 -121 49q-20 20 -41 106q-18 78 -18 117zM324 1030q0 -135 190 -246l55 467 q-246 -12 -245 -221zM494 63q266 6 266 222q0 180 -203 299z" />
<glyph unicode="%" horiz-adv-x="1683" d="M92 913q0 154 78 269q90 129 236 129q145 0 235 -129q78 -115 78 -269q0 -152 -80 -266q-88 -131 -233 -131t-234 131q-80 114 -80 266zM240 913q0 -117 30 -208q45 -131 138 -132q92 0 135 132q29 90 28 208q0 119 -28 209q-43 131 -135 131t-138 -131q-30 -92 -30 -209 zM410 -45q0 10 2 14l817 1356q6 8 18 8q16 0 32.5 -11t16.5 -26q0 -4 -821 -1368q-6 -10 -18 -10t-29.5 12.5t-17.5 24.5zM1010 369q0 154 77 268q90 129 236 129q145 0 236 -129q78 -115 77 -268q0 -152 -80 -267q-88 -131 -233 -131t-233 131q-80 115 -80 267zM1157 369 q0 -117 31 -209q45 -131 137 -131t135 131q29 90 29 209t-29 209q-43 131 -135 131t-137 -131q-31 -92 -31 -209z" />
<glyph unicode="&#x26;" horiz-adv-x="1574" d="M129 340q0 147 102 266q74 84 230 180q-158 117 -158 248q0 117 85 197t202 80q113 0 188.5 -66.5t75.5 -177.5q0 -88 -66 -152q-37 -35 -141 -94q205 -137 391 -401q170 252 283 502q6 14 20 45q6 12 19 12h264q25 0 25 -21q0 -14 -21.5 -19t-66.5 -15q-74 -16 -114 -48 t-87 -100q-8 -14 -47 -76q-64 -100 -238 -342q78 -109 234 -325q6 -8 6 -17q0 -16 -23 -16h-157q-29 0 -158 219q-227 -248 -447 -248q-170 0 -282 99q-119 102 -119 270zM283 401q0 -135 85 -222t220 -87q186 0 352 189q-170 289 -426 462q-100 -53 -162 -141 q-69 -95 -69 -201zM434 1083q0 -123 168 -223q123 88 123 213q0 74 -37 126t-106 52q-66 0 -107 -51t-41 -117z" />
<glyph unicode="'" horiz-adv-x="462" d="M154 1384q0 49 63 50h49q63 0 64 -50q0 -16 -11 -79l-51 -324q-3 -18 -26 -18t-27 18l-51 324q-10 63 -10 79z" />
<glyph unicode="(" horiz-adv-x="571" d="M164 553q0 262 102 494q111 250 312 389q6 2 12 2q23 0 22 -23q0 -8 -4 -14q-72 -78 -106 -129q-203 -295 -203 -719t203 -719q35 -51 106 -129q4 -6 4 -14q0 -23 -22 -23q-6 0 -12 2q-201 139 -312 389q-102 232 -102 494z" />
<glyph unicode=")" horiz-adv-x="501" d="M43 -311q0 10 4 16q37 41 107 129q203 295 202 719q0 424 -202 719q-35 51 -107 129q-4 6 -4 14q0 23 23 23q6 0 12 -2q201 -139 311 -389q102 -231 103 -494q0 -262 -103 -494q-111 -250 -311 -389q-6 -2 -10 -2q-25 1 -25 21z" />
<glyph unicode="*" horiz-adv-x="741" d="M76 1217q0 29 26 28q4 0 256 -127l23 254q0 20 25 21q25 0 24 -21l21 -254q252 127 256 127q27 0 26 -28q0 -12 -10 -17l-227 -160l227 -157q8 -7 8 -17q0 -31 -24 -30q-6 0 -256 131l-21 -254q0 -20 -24 -21q-25 0 -25 21l-23 254q-250 -131 -254 -131q-27 0 -26 30 q0 12 8 17l227 157l-227 160q-10 4 -10 17z" />
<glyph unicode="+" horiz-adv-x="868" d="M119 391v60q0 20 20 20h314v315q0 20 20 21h80q20 0 20 -21v-315h314q20 0 20 -20v-60q0 -20 -20 -20h-314v-351q0 -20 -20 -20h-80q-20 0 -20 20v351h-314q-20 0 -20 20z" />
<glyph unicode="," horiz-adv-x="475" d="M106 -217q0 14 14.5 20.5t47.5 18.5q115 60 115 158q0 66 -76 100.5t-76 77.5q0 41 28.5 66.5t71.5 25.5q74 0 121 -66q41 -57 41 -135q0 -96 -84 -195.5t-180 -99.5q-23 0 -23 29z" />
<glyph unicode="-" d="M66 410q0 49 26 51l459 45q39 2 39 -66q0 -49 -27 -51l-459 -45q-16 0 -27 23.5t-11 42.5z" />
<glyph unicode="." horiz-adv-x="450" d="M141 84q0 51 32 86t83 35t83 -35t32 -86t-32 -82t-83 -31q-49 0 -82 32t-33 81z" />
<glyph unicode="/" horiz-adv-x="698" d="M68 -14q0 4 417 1405q4 14 19 14h78q20 0 20 -19q0 -4 -418 -1404q-4 -14 -18 -15h-78q-20 0 -20 19z" />
<glyph unicode="0" horiz-adv-x="1028" d="M88 641q0 246 90 432q115 238 334 238t334 -238q90 -186 90 -432q0 -248 -88 -432q-115 -238 -336 -238t-336 238q-88 184 -88 432zM270 641q0 -213 37 -362q59 -246 205 -246q145 0 205 246q37 150 37 362q0 213 -37 363q-59 246 -205 245q-145 0 -205 -243 q-37 -152 -37 -365z" />
<glyph unicode="1" horiz-adv-x="741" d="M240 1171q0 16 16 21q25 6 72 16q137 33 250 95q8 4 14 4q16 0 16 -23q0 -14 -2 -37q0 -29 -2 -39q-2 -76 -2 -164v-1024q0 -20 -20 -20h-111q-20 0 -20 20v926q0 150 -39 174q-20 14 -68 19q-29 2 -84 8q-20 2 -20 24z" />
<glyph unicode="2" horiz-adv-x="929" d="M78 16q0 8 6 19q268 305 356 416q242 313 242 450q0 133 -59 213q-68 86 -197 86q-135 0 -225 -131q-2 -2 -37 -65q-8 -12 -21 -13q-33 0 -32 29q0 106 149 201q137 90 262 90q152 0 245 -92.5t93 -241.5q0 -150 -119 -324q-41 -59 -226 -271t-185 -237q0 -18 61 -18h488 q20 0 20 -27q0 -23 -16.5 -59.5t-36.5 -40.5h-90h-656q-22 0 -22 16z" />
<glyph unicode="3" horiz-adv-x="917" d="M84 12q0 33 23.5 56.5t56.5 23.5q45 0 93 -67.5t114 -67.5q59 0 133 41q100 55 164 149q70 102 69 211q0 137 -61 230q-72 104 -203 104q-82 0 -158.5 -49t-68.5 -49q-16 0 -29.5 17.5t-13.5 33.5q0 14 14 23q25 12 76 34q170 80 242 140q109 88 108 196q0 76 -46 126 t-122 50q-84 0 -151 -47q-41 -29 -91 -88q-39 -47 -53 -47q-23 0 -22 31q0 84 139 168q129 80 229 80q119 0 197 -58q88 -63 88 -178q0 -145 -219 -262q-2 -8 -2 -12q0 -14 26.5 -18.5t77.5 -14.5q104 -33 161.5 -113t57.5 -188q0 -231 -200.5 -406.5t-425.5 -175.5 q-78 0 -131 25q-72 35 -72 102z" />
<glyph unicode="4" horiz-adv-x="954" d="M41 422q0 27 37 78l657 917q21 29 78 29q6 4 14 4q20 0 21 -20q0 -8 -10 -23l-652 -901q-8 -10 -8 -19q0 -14 37 -14h346q37 0 47 9.5t10 43.5v377q0 37 48 58q39 18 79 18q25 0 25 -64v-395q0 -47 41 -47h121q25 0 24 -43q0 -43 -24 -43h-101q-39 0 -47 -4 q-14 -8 -14 -41v-322q0 -20 -20 -20h-111q-20 0 -21 20v316q0 37 -9 44t-50 7h-489q-29 0 -29 35z" />
<glyph unicode="5" horiz-adv-x="952" d="M129 -104q0 25 20.5 27.5t59.5 6.5q211 31 354 152q166 135 166 336q0 299 -405 358q-49 2 -146 10q-29 2 -28 23q0 6 10 41l108 364q14 49 54 56l493 69q16 0 16 -16q1 -45 -65 -123l-14 -8l-379 -53q-55 -8 -70 -56q-39 -127 -39 -135q0 -20 29 -26q23 0 45 -2 q225 -18 371 -119q172 -121 172 -330q0 -205 -170 -371q-147 -143 -363 -206q-113 -33 -194 -33q-25 0 -25 35z" />
<glyph unicode="6" horiz-adv-x="1001" d="M82 483q0 291 182 535q176 233 455 340q147 55 215 55q25 0 24 -22q0 -16 -14 -21q-33 -12 -96 -35q-221 -86 -350 -225q-233 -248 -234 -621q0 -176 55 -296q74 -160 230 -160q119 0 180 102q51 84 51 211q0 135 -57 229q-68 113 -195 113q-12 0 -34.5 -4t-34.5 -4 q-20 0 -21 18q0 12 15 21q80 47 176 47q150 0 241 -111q84 -102 84 -256q0 -186 -122.5 -307t-309.5 -121q-215 0 -334 152q-106 139 -106 360z" />
<glyph unicode="7" horiz-adv-x="1046" d="M61 1071q0 -10 43 127q6 25 21 74q6 14 20 14q27 0 81.5 -2t80.5 -2h467q29 0 88.5 2t89.5 2q23 0 23 -18q0 -6 -4 -15q-94 -158 -183 -333l-516 -1041q-6 -10 -22 -10t-33.5 11t-17.5 28q0 4 577 1171q16 33 17 49q0 27 -62 27h-420q-127 0 -178 -59q-8 -14 -20.5 -30.5 t-24.5 -16.5q-27 0 -27 22z" />
<glyph unicode="8" horiz-adv-x="972" d="M119 303q0 209 278 354q-236 137 -235 326q0 154 114 244q104 84 263 84q143 0 237 -76q102 -82 103 -223q0 -104 -76 -189q-51 -55 -166 -123q270 -160 270 -385q0 -164 -121 -258q-113 -86 -280 -86q-166 0 -270 80q-117 90 -117 252zM266 311q0 -115 70 -196.5 t182 -81.5q111 0 174.5 68.5t63.5 179.5q0 203 -303 342q-187 -103 -187 -312zM309 1022q0 -158 269 -291q164 109 163 277q0 96 -61.5 168.5t-155.5 72.5q-98 0 -156.5 -64.5t-58.5 -162.5z" />
<glyph unicode="9" horiz-adv-x="989" d="M96 893q0 180 120 299t300 119q203 0 313 -166q94 -143 95 -357q0 -281 -158 -509t-418 -338q-147 -61 -205 -62q-27 0 -26 27q0 16 14 20q74 27 219 94q391 221 391 785q0 164 -47 282q-66 162 -205 162q-113 0 -174 -88q-55 -76 -55 -194q0 -125 55 -224 q66 -121 181 -120h28q18 2 29 2q25 0 25 -19q0 -27 -74 -45q-57 -14 -96 -14q-139 0 -228 104q-84 98 -84 242z" />
<glyph unicode=":" horiz-adv-x="456" d="M141 84q0 51 32 86t83 35t83 -35t32 -86t-32 -82t-83 -31q-49 0 -82 32t-33 81zM141 686q0 51 32 86t83 35t83 -35t32 -86t-32 -82t-83 -31q-49 0 -82 32t-33 81z" />
<glyph unicode=";" horiz-adv-x="464" d="M106 -217q0 14 14.5 20.5t47.5 18.5q115 60 115 158q0 66 -76 100.5t-76 77.5q0 41 28.5 66.5t71.5 25.5q74 0 121 -66q41 -57 41 -135q0 -96 -84 -195.5t-180 -99.5q-23 0 -23 29zM141 686q0 51 32 86t83 35t83 -35t32 -86t-32 -82t-83 -31q-49 0 -82 32t-33 81z" />
<glyph unicode="&#x3c;" horiz-adv-x="983" d="M115 455q0 129 198 227q143 70 371 119q164 35 209 35q18 0 18 -23v-74q0 -12 -12 -18l-637 -297v-4l637 -299q12 -6 12 -90q0 -23 -18 -23q-4 0 -766 361q-12 6 -12 86z" />
<glyph unicode="=" horiz-adv-x="919" d="M119 238v59q0 20 20 20h748q20 0 20 -20v-59q0 -20 -20 -21h-748q-20 0 -20 21zM119 545v59q0 20 20 21h748q20 0 20 -21v-59q0 -20 -20 -21h-748q-20 0 -20 21z" />
<glyph unicode="&#x3e;" horiz-adv-x="866" d="M113 31v71q0 12 12 19l637 299v4l-637 297q-12 6 -12 18v74q0 23 18 23q4 0 766 -363q12 -6 12 -86q0 -127 -198 -225q-143 -72 -371 -119q-164 -35 -209 -35q-18 0 -18 23z" />
<glyph unicode="?" horiz-adv-x="612" d="M131 1245q0 78 82 78q139 0 250 -141q102 -133 102 -277q0 -86 -33 -135q-25 -41 -85 -72.5t-121 -62.5q-72 -39 -72 -90q0 -23 9 -63t9 -50q0 -23 -24 -22q-27 0 -60 92q-31 82 -30 116q0 88 110 148q119 63 138 76q76 55 75 127q0 190 -282 190q-25 0 -46.5 30 t-21.5 56zM143 84q0 51 32 86t83 35t83 -35t32 -86t-32 -82t-83 -31q-49 0 -82 32t-33 81z" />
<glyph unicode="@" horiz-adv-x="1517" d="M92 600q0 338 234.5 561t574.5 223q250 0 422 -139q182 -150 182 -393q0 -219 -152.5 -355.5t-377.5 -138.5h-29q-119 -2 -119 45q0 41 68 193l-4 2q-78 -78 -180 -147q-133 -92 -207 -93q-84 0 -84 93q0 121 155 315q207 258 410 258q45 0 74 -51q55 131 125 268 q-150 74 -301 74q-293 0 -475 -213q-174 -203 -175 -500q0 -131 52 -246q139 -317 559 -317q68 0 183.5 35t131.5 35q20 0 21 -25q0 -10 -11 -16q-158 -100 -387 -101q-295 0 -487 168q-203 174 -203 465zM582 479q0 -27 24 -26q43 0 164 106q59 53 136 156.5t108 177.5 q-25 59 -88 59q-53 0 -130 -62.5t-145 -184.5q-69 -132 -69 -226zM963 457q0 -31 49 -31q176 0 290.5 120t114.5 298q0 199 -153 342q-301 -702 -301 -729z" />
<glyph unicode="A" horiz-adv-x="1148" d="M94 18q203 524 441 1143q29 76 36 131q0 12 13 19q49 29 86 65q8 8 14 8q16 0 33 -45q8 -29 16 -57q18 -61 232 -674q205 -586 204 -590q0 -18 -20 -18h-145q-14 0 -19 14l-151 461q-17 51 -70 51h-324q-35 0 -46 -11t-23 -48q-4 -10 -115 -311q-20 -57 -55 -142 q-6 -14 -84 -14q-23 0 -23 18zM420 625q0 -16 31 -17h280q47 0 47 23q0 20 -75 243.5t-93 260.5h-4q-20 -37 -103 -263.5t-83 -246.5z" />
<glyph unicode="B" horiz-adv-x="1144" d="M84 1315q0 29 59 35h82q135 8 314 8q499 0 499 -313q0 -181 -209 -281q2 -23 39 -31q127 -31 201 -121t74 -221q0 -213 -174 -315q-141 -82 -371 -82q-16 0 -205 4q-37 0 -110 2q-20 2 -21 20v1065q0 102 -4 119q-12 59 -78 74q-29 4 -59 8q-37 6 -37 29zM430 338 q0 -145 29 -201q43 -80 176 -80q321 0 321 285q0 180 -116 270q-106 82 -291 82q-66 0 -78 -2q-41 -10 -41 -51v-303zM430 813q0 -39 10.5 -49t51.5 -10q174 0 256 47q110 58 110 214q0 138 -88 210q-79 69 -213 69h-4q-63 0 -93 -11t-30 -54v-416z" />
<glyph unicode="C" horiz-adv-x="1368" d="M90 668q0 332 244 530q229 186 567 186q143 0 363 -49q16 -4 33.5 -8t25.5 -18q0 -14 2 -41q4 -49 8 -105q13 -127 15 -127v2q0 -25 -29 -24q-20 0 -27 16q-10 33 -35 98q-100 193 -383 193q-274 0 -430 -176q-150 -168 -149 -447q0 -289 158 -473q167 -194 447 -194h3 q248 0 377 194q16 31 49 90q6 14 25 15q28 0 28 -25q0 -6 -12 -55q-18 -74 -35 -119q-31 -88 -57 -98q-172 -66 -387 -66q-307 0 -510 137q-291 197 -291 564z" />
<glyph unicode="D" horiz-adv-x="1574" d="M109 1315q0 31 77 35h105q180 8 346 8q285 0 450 -62q199 -74 307.5 -232.5t108.5 -371.5q0 -199 -93 -357.5t-265 -252.5q-180 -98 -459 -98q-76 0 -264 10q-49 0 -139 6q-20 2 -21 20v1090q0 80 -8 104q-14 47 -72 64q-6 2 -32 6q-41 8 -41 31zM430 354 q0 -180 57.5 -243.5t235.5 -63.5q289 0 438 180q137 166 137 461q0 289 -178 451q-173 155 -463 155h-4q-170 0 -202 -28q-21 -19 -21 -156v-756z" />
<glyph unicode="E" horiz-adv-x="1081" d="M94 1329q0 29 23 29q35 0 106.5 -3t108.5 -3h471q31 0 95.5 2t96.5 2q14 0 21.5 -17.5t16.5 -115t9 -125.5q0 -25 -26 -25q-20 0 -27.5 22.5t-13.5 43.5q-39 113 -137 137q-47 12 -176 12h-183q-35 0 -43 -16q-6 -8 -6 -49v-426q0 -43 10.5 -50.5t57.5 -7.5h387 q20 0 20 -28q0 -43 -24 -43h-383q-45 0 -54 -6q-14 -8 -14 -50v-301q0 -160 38 -199.5t556 -39.5q68 0 49 2q33 -4 33 -25q0 -12 -10.5 -30.5t-22.5 -18.5h-790q-20 0 -21 20l2 1127q0 70 -18 98q-20 37 -84 51q-23 4 -45.5 9.5t-22.5 23.5z" />
<glyph unicode="F" horiz-adv-x="1067" d="M98 1325q0 33 23 33t59 -2q47 -2 60 -2q121 -4 237 -4h113h158q104 2 157 2h37q25 2 37 2q23 0 22 -21q0 -39 3.5 -117.5t3.5 -117.5q0 -23 -27 -23q-18 0 -25 17q-6 29 -26 88q-33 74 -113 96q-45 12 -153 12h-185q-31 0 -40 -10t-9 -43v-461q0 -37 9.5 -46t45.5 -9h295 q29 0 27 -41q-10 -31 -27 -31h-305q-45 0 -45 -55v-572q0 -20 -20 -20h-127q-20 0 -21 20v1098q0 129 -41 160q-8 6 -69 20q-53 12 -54 27z" />
<glyph unicode="G" horiz-adv-x="1402" d="M94 659q0 291 185 486q226 239 646 239h3q119 0 260 -30q37 -6 108 -19q16 -4 21 -26v-37q4 -45 10 -103q14 -124 16 -124v2q0 -25 -26 -25q-20 0 -29 16q-12 37 -45 111q-100 174 -373 174q-266 0 -418.5 -162t-152.5 -428q0 -307 152 -495q164 -207 462 -207 q184 0 226 61q20 31 20 199q0 80 -4 104q-10 66 -49 82q-20 10 -94 15l-54 4q-37 4 -36 26q0 20 22 23h-2q0 -2 94 -2q45 0 135 2h136q20 0 20 -21v-315q0 -96 25 -129h6q24 0 24 -25q0 -29 -20 -28q-10 0 -23 10q-109 -25 -215 -47q-121 -23 -217 -23q-397 0 -624 228 q-188 188 -189 464z" />
<glyph unicode="H" horiz-adv-x="1525" d="M78 1327q0 25 22 25h310q20 0 20 -21v-522q0 -49 21 -59q10 -6 69 -7h610q59 0 70 7q20 10 21 59v520q0 20 20 21h152q100 2 149 2q23 0 23 -25q0 -18 -19 -20q-98 -16 -125 -37q-35 -31 -35 -123q0 -14 3 -47v-47v-1033q0 -20 -21 -20h-127q-20 0 -20 20v576 q0 49 -21 59q-10 6 -70 7h-610q-59 0 -69 -7q-20 -10 -21 -59v-576q0 -20 -20 -20h-127q-20 0 -21 20v1104q0 109 -28.5 138.5t-137.5 44.5q-18 2 -18 20z" />
<glyph unicode="I" horiz-adv-x="571" d="M76 1327q0 23 22 25h54q41 -2 53 -2q35 0 102 2h103q20 0 20 -21v-1311q0 -20 -20 -20h-125q-20 0 -21 20l-2 1121q0 98 -35 129q-27 23 -133 37q-18 2 -18 20z" />
<glyph unicode="J" horiz-adv-x="595" d="M-78 -369q0 31 22.5 63t51.5 32q27 0 81 -13.5t81 -13.5q55 0 82 53q53 109 53 502v852q0 96 -14 129q-23 49 -105 63q-23 2 -65 9q-18 2 -19 20q0 25 23 25t67 -2h70h129l61 2q20 -4 21 -21v-1067q0 -268 -47 -381q-123 -295 -426 -295q-66 0 -66 43z" />
<glyph unicode="K" horiz-adv-x="1398" d="M78 1329q0 29 22 29q41 0 125 -3t125 -3q39 0 116 3t114 3q23 0 22 -29q0 -20 -25.5 -24.5t-48.5 -8.5q-63 -14 -81.5 -46.5t-18.5 -100.5q0 -57 2 -170v-170q0 -78 27 -78q33 0 86 47q39 37 75 74l529 494q6 6 96 6h103q22 -4 22 -23q0 -20 -21.5 -24.5t-39.5 -6.5 q-80 -16 -138 -49q-88 -49 -471 -411q-47 -46 -47 -64t39 -63q90 -104 420 -478q61 -66 178 -198q8 -10 8 -19q0 -16 -22 -16h-158q-8 0 -16 8q-27 31 -82 92q-63 72 -191 213l-237 267q-82 90 -125 90q-35 0 -35 -99v-551q0 -20 -20 -20h-127q-20 0 -21 20v1125 q0 74 -14 102q-23 39 -92 51q-25 2 -51.5 6.5t-26.5 24.5z" />
<glyph unicode="L" horiz-adv-x="991" d="M68 1327q0 23 22 25h-2q0 -2 117 -2q35 0 102 2h103q20 0 20 -21v-999q0 -176 44 -222.5t222 -46.5h172q115 2 172 3q20 0 21 -21q0 -12 -9.5 -28.5t-21.5 -16.5h-747q-20 0 -21 20v1113q0 88 -16 116q-25 39 -105 51q-23 0 -45 3q-29 6 -28 24z" />
<glyph unicode="M" horiz-adv-x="1753" d="M111 1327q0 23 22 25h-1q0 -2 77 -2q29 0 86 2h84q12 0 18 -13l400 -792q45 -94 141 -281h4q43 74 158 307l381 768q6 12 18 13q47 0 137 -2h138q22 0 22 -21q0 -22 -33 -28q-25 -2 -49 -5q-76 -12 -98 -53q-16 -31 -17 -115v-22q0 -98 23 -762q10 -330 10 -326 q0 -20 -20 -20h-142q-20 0 -20 20l-6 1059h-4q-43 -88 -133 -266l-183 -358q-137 -270 -202 -422q-23 -53 -37 -53q-6 0 -11 2l9 -2l-19 14q-23 68 -180 403l-184 396q-43 98 -131 294h-4q-20 -309 -35 -722l-11 -242q0 -35 -4 -103q-2 -20 -32 -22q20 2 -47 2q-20 0 -21 23 q0 -2 8 106l21 250q18 248 43 747v31v12q-1 65 -21 91q-22 28 -96 38q-18 4 -38.5 7.5t-20.5 21.5z" />
<glyph unicode="N" horiz-adv-x="1497" d="M41 1329q0 23 20 23h263q55 0 63 -9q35 -45 92 -118q82 -109 252 -318q176 -201 537 -594h2q10 23 10 86v936q0 20 20 21q37 0 112 -2t114 -2q22 0 22 -21q0 -20 -67 -35q-74 -14 -86 -36q-31 -55 -31 -342v-570q0 -158 2 -250q0 -16 2 -50t2 -52q0 -27 -29 -27 q-10 0 -16 8q-25 31 -74 91q-61 72 -182 208l-475 541q-78 94 -238 277h-4q-10 -43 -10 -133v-941q0 -20 -68 -20q-20 0 -20 20l4 1086q0 82 -25 121q-27 49 -100 65q-25 4 -74 13q-18 6 -18 24z" />
<glyph unicode="O" horiz-adv-x="1607" d="M94 662q0 311 209 516.5t520 205.5q313 0 512 -194.5t199 -507.5q0 -303 -204 -509t-507 -206q-309 0 -516 191q-213 197 -213 504zM299 727q0 -281 133 -473q150 -223 418 -223q233 0 364 182q115 162 115 405q0 287 -123 478q-145 225 -418 225q-100 0 -190 -39 q-299 -131 -299 -555z" />
<glyph unicode="P" horiz-adv-x="1058" d="M82 1315q0 23 20 26q55 16 400 17q262 0 393 -82q164 -102 164 -307q0 -188 -152 -295q-133 -92 -332 -92q-23 0 -22 20q0 14 18 21q33 6 97 26q202 78 202 316q0 156 -88 242.5t-241 86.5q-72 0 -84 -6q-27 -10 -27 -67v-1201q0 -20 -20 -20h-127q-20 0 -21 20v1100 q0 82 -10 105q-16 41 -82 55q-29 2 -55 6q-33 6 -33 29z" />
<glyph unicode="Q" horiz-adv-x="1607" d="M94 662q0 311 209 516.5t520 205.5q313 0 512 -194.5t199 -507.5q0 -295 -192.5 -494.5t-487.5 -220.5q10 -123 23 -162q28 -106 100 -106q27 0 80 13.5t82 13.5t51 -32t22 -63q0 -43 -60 -43h-5h-23q-162 2 -282 117q-115 109 -148 272q-266 43 -433 230.5t-167 454.5z M299 727q0 -530 399 -664q97 -32 147 -32h3q236 0 364 182q117 162 117 405q0 287 -123 478q-145 225 -418 225q-100 0 -190 -39q-299 -131 -299 -555z" />
<glyph unicode="R" horiz-adv-x="1204" d="M96 1315q0 31 62 35q45 0 90 2q137 6 317 6q512 0 512 -348q0 -236 -256 -342q-2 -6 -2 -13q0 -33 202 -330.5t202 -308.5q0 -16 -23 -16h-158q-8 0 -15 8t-103 154q-82 129 -252 383q-31 45 -72 57q-28 8 -94 8q-45 0 -53 -2q-23 -8 -23 -43v-545q0 -20 -20 -20h-127 q-20 0 -21 20v1022q0 84 -2 123q-4 57 -18 80q-18 31 -70 37q-23 2 -49.5 6t-26.5 27zM430 750q0 -47 6 -68q29 -10 142 -10q313 0 313 307q0 145 -90 230t-238 85q-113 0 -127 -22q-6 -10 -6 -43v-479z" />
<glyph unicode="S" horiz-adv-x="954" d="M86 305q0 41 29 41q14 0 20 -14q10 -31 35 -92q102 -209 315 -209q111 0 183.5 63.5t72.5 171.5q0 174 -168 287q-94 61 -186 121q-109 76 -162 149q-68 94 -67 209q0 168 129 264q115 88 288 88q74 0 191 -26q20 -4 44 -8t32 -17.5t20 -96.5t12 -108q0 -49 -30 -49 q-16 0 -33 37q-10 25 -21.5 52.5t-23.5 48.5q-68 104 -221 104q-244 0 -244 -227q0 -129 154 -238l286 -192q154 -133 154 -318q0 -180 -131 -285q-119 -94 -305 -94q-74 0 -162 19q-106 20 -152 53q-20 16 -41 125q-18 96 -18 141z" />
<glyph unicode="T" horiz-adv-x="1382" d="M16 1114v-1q3 0 50 138q8 29 22 84q6 16 21 17h1196q20 0 20 -19q0 -37 -12.5 -114.5t-12.5 -116.5q0 -23 -30 -23q-23 0 -35 66q-16 74 -39 92q-68 51 -238 51h-145q-45 0 -52 -10t-7 -59v-1199q0 -20 -21 -20h-127q-20 0 -20 20v1203q0 47 -8.5 56t-53.5 9h-112 q-119 0 -164 -10q-84 -20 -131 -90q-10 -14 -47 -86q-6 -12 -21 -12q-33 0 -33 24z" />
<glyph unicode="U" horiz-adv-x="1603" d="M61 1329q0 20 23 23h-2q0 -2 108 -2q35 0 103 2h100q20 0 21 -21v-727q0 -547 415 -547q410 0 410 545v725q0 20 21 21q39 0 115.5 2t113.5 2q22 0 22 -21q0 -22 -65 -28q-74 -8 -94 -48q-29 -55 -29 -370v-279q0 -334 -141.5 -486.5t-393.5 -152.5q-295 0 -423 154 q-119 141 -119 442v582q0 78 -20.5 111.5t-92.5 46.5q-16 0 -53 6q-18 2 -19 20z" />
<glyph unicode="V" horiz-adv-x="1501" d="M-8 1327q0 23 22 25h-2q0 -2 82 -2q35 0 105 2h102q14 0 21 -15q14 -45 36 -118q111 -334 379 -949q25 53 197 455l240 557q8 20 26 61q8 12 21 13q33 0 99 -2t101 -2q20 0 21 -23q0 -20 -19 -22q-45 -6 -85 -14.5t-72 -61.5q-82 -133 -183 -354q-78 -184 -157 -369 q-123 -281 -193 -477q-6 -20 -14.5 -42t-28.5 -22q-25 0 -33 17q-10 31 -26 86q-27 82 -66 176l-360 889q-31 76 -47 100q-33 45 -90 61q-23 2 -45 7q-31 6 -31 24z" />
<glyph unicode="W" horiz-adv-x="2101" d="M-14 1329q0 23 22 23q14 0 43 -2h43h86q57 2 86 2q14 0 21 -13q20 -47 61 -139l111 -244q152 -332 336 -725q190 393 190 416q0 20 -108 260q-98 215 -134 285q-29 55 -47 74q-27 29 -75 37l-48 6q-20 2 -20 22t20 21h947q20 0 20 -21q0 -20 -17.5 -22t-47.5 -6 q-82 -14 -142 -123q-33 -63 -112 -226q-94 -190 -95 -206q0 -18 224 -517q147 344 444 1033q10 25 33 75q6 12 18 13h154q37 0 37 -19q0 -8 -2 -12q-6 -10 -43 -18q-43 -8 -52 -13q-55 -27 -98 -116q-35 -72 -133 -297q-168 -385 -326 -785q-12 -39 -43 -110q-6 -15 -26 -15 q-25 0 -33 15q-8 25 -27 71q-39 102 -217 502q-158 -319 -227 -502q-8 -27 -16 -53q-14 -33 -37 -33q-25 0 -35 15q-14 39 -43 108q-47 111 -94 213l-391 854q-35 76 -48 92q-31 41 -88 51q-18 2 -53 9q-18 2 -18 20zM895 1272q0 -37 182 -436q172 356 172 428q0 43 -75 43 q-33 0 -211 -2q-68 0 -68 -33z" />
<glyph unicode="X" horiz-adv-x="1339" d="M-6 1329q0 23 20 23q45 0 136 -2h137q8 0 16 -9q0 -2 35 -51l82 -123q86 -129 264 -379q84 115 260 383l72 109q12 23 37 59q8 10 18 11h100q70 2 103 2q22 0 22 -23q0 -20 -57 -26q-88 -8 -219 -175q-287 -362 -287 -401q0 -14 27 -53l450 -641q6 -8 7 -17 q0 -16 -23 -16h-147q-8 0 -17 8q-2 2 -39 58l-90 127q-90 131 -274 387q-74 -102 -275 -406l-71 -111q-10 -18 -35 -53q-8 -10 -76 -10q-23 0 -23 16q0 12 215.5 312.5t215.5 322.5q0 12 -25 47l-307 441q-47 68 -68 90q-41 39 -96 57q-25 6 -72 19q-16 6 -16 24z" />
<glyph unicode="Y" horiz-adv-x="1314" d="M-14 1327q0 25 22 25q45 0 136.5 -4.5t136.5 -4.5q10 0 18 -12l33 -65l76 -152q76 -156 235 -461l277 473q55 94 88 154q10 20 32 61q8 10 19 11h55q39 -2 57 -2q72 0 58 2q22 -2 22 -23q0 -20 -25.5 -25.5t-45.5 -9.5q-74 -20 -133 -100q-27 -37 -134 -221l-129 -223 q-66 -113 -79 -160q-16 -55 -17 -172v-398q0 -20 -20 -20h-127q-20 0 -21 20v396q0 86 -11 129t-54 125l-242 471q-37 72 -53 92q-33 43 -86 57q-23 4 -72 15q-16 6 -16 22z" />
<glyph unicode="Z" horiz-adv-x="1275" d="M82 16q0 8 4 17q233 326 465 653q385 543 393 586q-14 16 -67 16h-332q-131 0 -183 -14q-86 -23 -143 -105q-14 -27 -45 -79q-6 -12 -22 -13q-31 0 -31 23q0 6 26.5 118.5t30.5 118.5q6 14 19 15h993q20 0 20 -15q0 -10 -51 -71q-135 -166 -309 -420q-147 -217 -295 -432 q-55 -78 -111 -154q-65 -94 -92 -164q2 -23 58 -28q45 -4 172 -5h604q20 0 20 -22q0 -41 -28 -41h-1076q-20 0 -20 16z" />
<glyph unicode="[" horiz-adv-x="577" d="M240 -287v1671q0 20 20 21h131q39 0 160 -4h41q27 -4 26 -25q0 -16 -18 -24l-47 -2q-145 -6 -175 -34t-30 -306v-922q0 -279 25.5 -302.5t142.5 -29.5q102 -4 102 -35q0 -18 -19 -20t-58 -4q-111 -4 -150 -4h-131q-20 0 -20 20z" />
<glyph unicode="\" horiz-adv-x="552" d="M68 1386q0 18 20 19h76q16 0 20 -14l381 -1405q0 -18 -20 -19h-76q-16 0 -20 15z" />
<glyph unicode="]" horiz-adv-x="557" d="M37 -279q0 16 18 25l47 2q145 6 179 37q27 25 26 303v922q0 279 -25.5 302t-142.5 29q-102 4 -102 35q0 18 19.5 20.5t58.5 4.5q111 4 149 4h131q20 0 21 -21v-1671q0 -20 -21 -20h-131q-39 0 -160 4h-41q-26 4 -26 24z" />
<glyph unicode="^" horiz-adv-x="983" d="M111 518q0 125 94 324q68 143 174 305q90 135 96 135h74q39 0 205 -377q158 -358 157 -387q0 -18 -22 -18h-80q-14 0 -21 12l-276 625l-276 -625q-6 -12 -21 -12h-82q-23 0 -22 18z" />
<glyph unicode="_" horiz-adv-x="956" d="M0 -174q0 20 20 20h984q20 0 20 -20v-62q0 -20 -20 -20h-984q-20 0 -20 20v62z" />
<glyph unicode="`" horiz-adv-x="493" d="M154 1243q0 27 32.5 54.5t59.5 27.5q23 0 37 -20q49 -70 106 -181q45 -94 92 -186q2 -6 2 -10q0 -23 -22 -23q-8 0 -15 6l-258 271q-34 36 -34 61z" />
<glyph unicode="a" horiz-adv-x="989" d="M74 379q0 209 145 336q139 121 350 121q76 0 168 -29q137 -43 137 -74v-713q0 -20 -20 -20h-109q-23 0 -30 53q-117 -82 -242 -82q-180 0 -289.5 114t-109.5 294zM221 436q0 -143 93.5 -246.5t236.5 -103.5q71 0 143 37q0 6 4 12q25 41 25 111v387q0 8 -14 24 q-96 109 -205 109q-131 0 -211 -102q-72 -92 -72 -228z" />
<glyph unicode="b" horiz-adv-x="993" d="M59 1360q0 12 13 20q8 2 81.5 28t129.5 52q8 2 12 2q18 0 18 -22q0 -39 -4 -115t-4 -115v-399q0 -41 21 -43q119 68 235 68q172 0 281.5 -115t109.5 -287q0 -205 -133 -334t-338 -129q-94 0 -227 45q-25 8 -33 9q-6 0 -27.5 -14.5t-31.5 -14.5q-12 0 -12 18q0 27 2 82.5 t2 81.5v1028q0 57 -17 80q-8 8 -63 47q-14 12 -15 27zM305 279q0 -246 207 -246q137 0 207 106q61 90 61 234q0 158 -75 260q-84 115 -236 115q-90 0 -139 -33q-25 -17 -25 -117v-319z" />
<glyph unicode="c" horiz-adv-x="856" d="M74 379q0 209 145 336q139 121 350 121q39 0 99 -11q72 -10 88 -28q26 -26 26 -74q0 -27 -12 -53.5t-33 -26.5q-10 0 -80.5 61.5t-152.5 61.5q-131 0 -211 -100q-72 -94 -72 -230q0 -145 93.5 -247.5t236.5 -102.5q74 0 131 31q37 20 72 59q29 33 32 33q27 0 27 -27 q0 -78 -129 -147q-117 -63 -211 -64q-180 0 -289.5 114t-109.5 294z" />
<glyph unicode="d" horiz-adv-x="989" d="M72 365q0 211 141 341t354 130q25 0 73 -9.5t65 -9.5q12 0 12 29v364q0 70 -47 104t-47 46q0 16 34 29q27 8 52 14q74 31 147 59q18 0 18 -22q0 -39 -3 -120t-3 -122v-1178q0 -20 -20 -20h-111q-18 0 -20 23v34v9h-8q-139 -94 -258 -95q-166 0 -272.5 114t-106.5 280z M240 432q0 -147 75 -250q85 -112 227 -112h3q55 0 102 20q57 25 68 70q2 8 2 39v407q0 74 -59.5 120t-135.5 46q-135 0 -213 -106q-70 -94 -69 -234z" />
<glyph unicode="e" horiz-adv-x="833" d="M72 373q0 188 110 321q117 141 301 142q113 0 197 -64q94 -72 94 -180q0 -72 -53 -72q-12 0 -38 2t-38 2h-379q-39 0 -47 -8t-8 -47q0 -162 88 -268q94 -115 252 -115q82 0 140.5 51t60.5 51q23 0 22 -24q0 -72 -123 -135q-113 -57 -196 -58q-172 0 -277.5 114 t-105.5 288zM233 596q0 -10 15 -10h145q188 0 213 20q12 10 12 39q0 63 -46 96t-111 33q-131 0 -205 -119q-23 -32 -23 -59z" />
<glyph unicode="f" horiz-adv-x="772" d="M72 741q0 20 61.5 46t61.5 57q0 221 63 360q119 260 369 260q74 0 129 -24q71 -33 71 -97q0 -33 -23.5 -54t-53.5 -21q-20 0 -85 57t-128 57q-193 0 -193 -522q0 -33 4 -39q6 -14 33 -14h223q23 0 23 -49q0 -37 -27 -37h-219q-29 0 -35 -19v-40v-642q0 -20 -20 -20h-90 q-41 0 -41 41v645q0 33 -35 39q-4 2 -58 2q-31 0 -30 14z" />
<glyph unicode="g" horiz-adv-x="964" d="M57 -313q0 49 23 75q2 2 90 88q72 70 72 87q0 8 -6 12q-57 16 -101 59q-49 47 -49 103q0 14 31 34q119 78 129 134q-154 88 -154 247q0 133 99.5 221.5t234.5 88.5q100 0 197 -41q76 -33 125 -33h159q20 0 21 -33q0 -51 -29 -51h-145q4 -45 4 -105q0 -150 -95.5 -237.5 t-248.5 -87.5q-25 0 -90 6q-90 -53 -91 -113q0 -86 144 -86q41 0 122 3t122 3q286 0 286 -223q0 -178 -172 -291q-152 -98 -338 -98q-129 0 -225 53q-115 63 -115 185zM211 -260q0 -104 90 -158q74 -45 184 -45q113 0 199 53q104 61 104 166q0 178 -233 178h-70 q-139 0 -176 -22q-98 -59 -98 -172zM258 547q0 -92 47 -160q51 -80 139 -80q86 0 129 66q39 57 39 147q0 102 -39 172q-49 84 -143 84q-84 0 -131 -76q-41 -63 -41 -153z" />
<glyph unicode="h" horiz-adv-x="997" d="M84 1362q0 12 27 22q119 39 196 76q8 2 12 2q18 0 19 -22q0 -35 -3 -106.5t-3 -106.5v-465q0 -20 8 -33q143 106 276 107q264 0 265 -265v-551q0 -20 -21 -20h-110q-20 0 -21 20v502q0 219 -194 219q-68 0 -127 -32q-70 -37 -76 -99v-37v-553q0 -20 -21 -20h-110 q-20 0 -21 20v1190q0 70 -41 101q-49 35 -49 37q-6 8 -6 14z" />
<glyph unicode="i" horiz-adv-x="479" d="M119 745q0 14 16.5 20.5t50.5 20.5q82 35 142 70q8 6 14 6q18 0 18 -24q0 -41 -4 -119q-4 -84 -4 -121l-2 -578q0 -20 -20 -20h-109q-20 0 -20 20v568q0 68 -11 84q-4 10 -61 53q-10 8 -10 20zM158 1247q0 47 31.5 78t78.5 31q45 0 73 -30t28 -75q0 -104 -107 -104 q-45 0 -74.5 27.5t-29.5 72.5z" />
<glyph unicode="j" horiz-adv-x="475" d="M-29 -518q0 12 11 18q31 18 88 64q86 86 116 237q18 96 19 271v534q0 53 -12 72q-6 8 -60 47q-10 8 -10 20t16.5 19.5t57.5 26.5q80 35 135 65q8 6 14 6q18 0 19 -24q0 -39 -4.5 -119t-4.5 -121v-496q0 -244 -69 -378q-76 -143 -277 -271q-6 -2 -10 -2q-29 0 -29 31z M162 1231q0 47 31.5 77.5t78.5 30.5q45 0 73 -29.5t28 -74.5q0 -104 -107 -105q-45 0 -74.5 28t-29.5 73z" />
<glyph unicode="k" horiz-adv-x="966" d="M88 1360q0 18 31 29q23 6 45 12q78 31 155 61q18 0 19 -22q0 -35 -3 -106.5t-3 -108.5v-729q0 -23 6 -27t31 -4q55 0 125 63q49 53 98 107q41 39 121 117q16 20 51 59q8 8 16 9h154q20 0 20 -25q0 -20 -25.5 -25.5t-47.5 -9.5q-109 -20 -312 -248q-8 -8 -24 -29 q25 -37 149 -184q80 -92 156 -180q27 -27 76 -84q8 -10 8 -19q0 -16 -23 -16h-139q-8 2 -16 6l-322 377q-25 29 -63 29q-31 0 -37 -23q-2 -4 -2 -47v-322q0 -20 -21 -20h-112q-20 0 -21 20l2 1190q0 72 -46 104t-46 46z" />
<glyph unicode="l" horiz-adv-x="454" d="M86 1360q0 14 14 20q25 8 74 25q61 20 133 55q8 2 12 2q18 0 19 -22q0 -39 -3 -118t-3 -120l2 -1182q0 -20 -21 -20h-112q-20 0 -21 20v1186q0 78 -47 109t-47 45z" />
<glyph unicode="m" horiz-adv-x="1560" d="M119 745q0 12 16.5 19.5t54.5 23.5q70 31 132 68q8 6 16 6q10 0 13 -14t3 -35q-2 -33 -2 -29q0 -51 23 -53q150 104 272 105q133 0 217 -121h4h1q20 -1 127 59q110 62 198 62q114 0 180 -70q64 -68 64 -177v-7l-8 -562q0 -20 -21 -20h-102q-20 0 -21 20v506 q0 211 -190 211q-113 0 -170 -71q-31 -39 -31 -123v-523q0 -20 -21 -20h-110q-20 0 -21 20v506q0 211 -188 211q-111 0 -172 -73q-31 -37 -31 -117v-527q0 -20 -20 -20h-111q-20 0 -20 20v568q0 68 -8.5 82t-63.5 55q-10 8 -10 20z" />
<glyph unicode="n" horiz-adv-x="1026" d="M119 745q0 12 16.5 19.5t52.5 23.5q70 31 134 68q8 6 16 6q14 0 16 -33l-1 26q-1 0 -1 -71q0 -51 23 -53q170 104 287 105q115 0 177 -69t62 -185v-562q0 -20 -20 -20h-115q-20 0 -21 20l5 515q2 202 -191 202h-2q-121 0 -174 -71q-31 -41 -31 -123v-523q0 -20 -20 -20 h-115q-20 0 -20 20q4 580 4 586q0 53 -13 72q-4 6 -59 47q-10 8 -10 20z" />
<glyph unicode="o" horiz-adv-x="976" d="M72 393q0 188 125 315.5t311 127.5q180 0 298 -122t118 -302q0 -193 -120 -317t-312 -124q-184 0 -302 119t-118 303zM248 420q0 -145 59 -254q72 -133 205 -133q125 0 186 117q49 92 50 229q0 150 -58 258q-72 137 -207 137q-123 0 -186 -123q-49 -96 -49 -231z" />
<glyph unicode="p" horiz-adv-x="1021" d="M92 745q0 12 12 19q23 12 68 33q59 31 127 73q8 4 14 4q18 0 19 -18q0 -14 -5 -45t-5 -45q0 -25 18 -27q190 96 287 97q154 0 250 -113q90 -106 90 -262q0 -215 -141.5 -352.5t-358.5 -137.5q-66 1 -113 9q-29 -6 -28 -58v-442q0 -20 -21 -21h-110q-20 0 -21 21v1108 q0 68 -8 82t-64 55q-10 8 -10 20zM326 207q0 -78 60 -123t149 -45q135 0 206 123q59 100 60 246q0 133 -70 227q-78 102 -207 102q-125 0 -174 -57q-24 -29 -24 -121v-352z" />
<glyph unicode="q" horiz-adv-x="985" d="M72 373q0 211 139 337t352 126q94 0 170 -21q53 -14 72 -14q12 0 32.5 16.5t28.5 16.5q18 0 19 -19q0 -39 -9.5 -122t-9.5 -124v-1089q0 -18 -20 -21h-111q-20 0 -20 21v508q0 33 -19 35q-92 -51 -209 -52q-287 0 -385 250q-31 76 -30 152zM244 438q0 -158 82 -266 q88 -119 241 -119q111 0 133 33q14 20 15 82v305q0 158 -27 205q-51 94 -176 94q-127 0 -201 -106q-68 -96 -67 -228z" />
<glyph unicode="r" horiz-adv-x="724" d="M119 745q0 12 17.5 20.5t56.5 25.5q53 25 129 65q8 4 14 4q16 0 16 -22v-107q0 -12 6 -18q150 123 226 123q39 0 65.5 -22.5t26.5 -59.5q0 -39 -25.5 -67t-62.5 -28q-23 0 -64 24t-71 24q-100 0 -101 -199v-488q0 -20 -20 -20h-111q-20 0 -20 20v568q0 68 -8 84 q-6 10 -64 53q-10 8 -10 20z" />
<glyph unicode="s" horiz-adv-x="690" d="M59 193q0 57 27 57q23 0 49 -57q33 -78 58 -105q49 -57 133 -57q61 0 99 34.5t38 96.5q0 82 -94 147q-86 57 -172 115q-94 76 -95 178q0 113 86 176q76 57 193 58q160 0 182 -43q31 -55 31 -140q0 -37 -29 -37q-16 0 -39 41q-31 55 -53 78q-43 41 -108 41 q-57 0 -94.5 -33.5t-37.5 -91.5q0 -72 95 -133q88 -57 178 -112q94 -82 94 -201q0 -113 -94 -178q-82 -55 -201 -56q-147 0 -215 58q-12 10 -22 77q-9 58 -9 87z" />
<glyph unicode="t" horiz-adv-x="677" d="M96 774q20 6 43 14q78 35 127 115q29 47 41 47q27 0 27 -20v-84q0 -27 5 -33t32 -6h219q26 0 26 -42v-3q0 -41 -24 -41h-223q-27 0 -32 -9.5t-5 -39.5v-383q0 -106 22 -156q33 -72 127 -72q35 0 71 19.5t38 19.5q20 0 20 -24q0 -41 -90 -76q-76 -29 -127 -29 q-213 0 -213 222v469q0 39 -5 49t-38 10q-49 0 -43 0q-24 2 -24 22q0 18 26 31z" />
<glyph unicode="u" horiz-adv-x="991" d="M80 772q0 25 19.5 27t58.5 4q23 2 82 16q53 14 71 15q18 0 19 -23q0 -14 -2 -44t-2 -44v-422q0 -115 36 -170q43 -65 154 -65q98 0 166 61q41 37 41 119v571q0 29 78 29q82 0 82 -35q0 -8 -3 -25.5t-3 -23.5q-2 -37 -3 -119v-623q0 -20 -20 -20h-109q-14 0 -26 31 q-16 43 -19 45q-166 -104 -278 -105q-248 0 -248 256v205q2 137 2 205q0 53 -24 80q-12 14 -48 28q-25 12 -24 27z" />
<glyph unicode="v" horiz-adv-x="966" d="M-6 788q0 25 22 24l217 -1q12 0 19 -12q25 -61 61 -158q45 -119 142 -356q10 -23 32 -64q18 25 39 76l193 502q4 12 18 12l150 1q24 0 24 -26q0 -20 -41 -28q-55 -12 -94 -70q-4 -6 -55 -108q-20 -41 -82 -181q-68 -158 -150 -362q-8 -20 -22 -57q-6 -12 -21 -13 q-25 0 -30 17q-8 25 -25 73q-8 27 -223 547q-33 80 -35 84q-25 43 -65 60q-23 4 -48.5 10.5t-25.5 29.5z" />
<glyph unicode="w" horiz-adv-x="1445" d="M-12 786q0 27 22 27q33 0 95.5 -2t95.5 -2q45 0 51 -16.5t14 -44.5q35 -125 170 -441q14 -29 35 -86q10 10 49 96l178 402q8 14 19 14q10 0 18 -14q2 -4 70 -139q45 -92 160 -340q4 -10 10 -17q31 45 92 205q41 111 80 223q23 63 59 150q8 14 19 14l139 -2q22 0 22 -25 q0 -20 -20 -26t-39 -10q-39 -14 -63 -52q-8 -12 -37 -73q-80 -168 -193 -465q-16 -43 -49 -129q-6 -23 -24 -60q-8 -6 -23 -6q-16 0 -25 15q-23 61 -53 147q-61 160 -80 203q-51 120 -94 192q-35 -57 -151 -340q-18 -45 -56 -137q-8 -25 -16 -49q-12 -31 -35 -31t-37 37 q-8 29 -16 54.5t-221 549.5q-27 66 -37 84q-27 41 -70 58q-18 4 -38.5 11t-20.5 25z" />
<glyph unicode="x" horiz-adv-x="923" d="M12 786q0 27 21 27q35 0 100.5 -2t97.5 -2q8 0 14.5 -7t67.5 -97q86 -131 142 -197q63 76 147 190q20 33 68 90q20 20 139 21q47 0 45 -27v-6q-2 -12 -63 -28q-68 -20 -78 -27q-27 -18 -119 -134t-92 -134q0 -25 144.5 -221.5t144.5 -215.5q0 -16 -23 -16h-115 q-10 0 -16 8l-176 258q-14 20 -45 58q-16 -18 -37 -48l-184 -268q-6 -8 -37 -8q-49 0 -49 16q0 14 132 185.5t132 183.5q0 14 -195 283q-47 66 -112 84q-18 4 -36 10t-18 24z" />
<glyph unicode="y" horiz-adv-x="993" d="M0 786q0 27 23 27h229q12 0 18 -14q16 -51 47 -148q57 -174 105 -307q41 -116 70 -149v4q0 10 65 151l207 445q6 12 18 12h136q22 0 22 -23q0 -18 -23.5 -25t-46.5 -14q-51 -25 -92 -90q-6 -12 -57 -116q-225 -463 -451 -953q-43 -92 -98 -92q-18 0 -18 17q0 6 4 14 q47 92 139 274q23 41 59 125q20 55 21 88q0 45 -35 142q-57 170 -184 501q-27 63 -68 86q-16 8 -63 17q-27 6 -27 28z" />
<glyph unicode="z" horiz-adv-x="747" d="M43 612q0 39 31 111q33 84 61 84h436q18 0 56 2h53q20 0 20 -16q0 -6 -4 -17q-49 -72 -141 -217l-248 -416q-26 -47 -26 -61q0 -20 65 -21h338q20 0 21 -20q0 -41 -29 -41h-574q-20 0 -20 18q0 6 383 666q18 31 18 45q0 16 -37 16h-141q-98 0 -134 -25.5t-79 -117.5 q-6 -14 -20 -14q-29 0 -29 24z" />
<glyph unicode="{" horiz-adv-x="587" d="M129 549q0 18 49 31q33 8 68 16q70 35 69 145q0 72 -15 212.5t-15 209.5q0 258 278 258q23 0 23 -20q0 -14 -20.5 -19.5t-63.5 -21.5q-98 -43 -99 -176q0 -70 19.5 -208t19.5 -208q0 -170 -153 -215v-8q154 -45 153 -215q0 -70 -19.5 -208t-19.5 -208q0 -131 99 -176 q8 -4 65 -19q20 -6 21 -20q0 -20 -25 -21q-279 0 -278 256q0 70 15 211t15 211q0 111 -67 144q-4 2 -72 18q-47 10 -47 31z" />
<glyph unicode="|" horiz-adv-x="442" d="M184 -492v2008q0 20 21 20h80q20 0 20 -20v-2008q0 -20 -20 -20h-80q-20 0 -21 20z" />
<glyph unicode="}" horiz-adv-x="501" d="M70 -303q0 14 19.5 19t64.5 20q98 45 98 178q0 70 -19.5 208t-19.5 208q0 170 154 215v8q-154 45 -154 215q0 70 19.5 208t19.5 208q0 131 -98 176q-8 2 -66 18q-18 6 -18 21q0 20 22 20q279 0 279 -256q0 -70 -15.5 -211t-15.5 -211q0 -111 68 -143q4 -2 71 -18 q47 -10 47 -31q0 -18 -49 -31q-33 -8 -67 -16q-70 -35 -70 -146q0 -72 15.5 -212t15.5 -210q0 -258 -279 -258q-23 0 -22 21z" />
<glyph unicode="~" horiz-adv-x="847" d="M158 264q0 68 68.5 137.5t138.5 69.5h253q78 0 121 35q20 20 45 67q16 35 37 35q45 0 45 -33q0 -72 -67.5 -139t-139.5 -67h-253q-78 0 -121 -35q-20 -20 -45 -68q-17 -35 -37 -35q-45 0 -45 33z" />
<glyph unicode="&#xa1;" horiz-adv-x="423" d="M111 686q0 51 31.5 86t82.5 35t83 -35t32 -86t-32 -82t-83 -31q-49 0 -81.5 32t-32.5 81zM125 -485q0 23 14 182l60 651q0 20 26 21q27 0 27 -21l59 -651q14 -160 15 -182q0 -59 -101 -60q-100 1 -100 60z" />
<glyph unicode="&#xa2;" horiz-adv-x="888" d="M133 625q0 195 131 317q123 115 322 135l18 164q2 20 35 21q35 0 33 -25l-19 -156q143 -4 168 -26q43 -37 43 -129q0 -43 -26 -43q-12 0 -29 18q-61 72 -166 103l-82 -682q41 -8 82 -9q70 0 129 31q39 18 80 55q33 31 39 31q18 0 18 -18q0 -6 -4 -15q-109 -174 -356 -180 l-23 -197q-1 -20 -34 -20q-37 0 -33 25l24 198q-162 27 -256 132.5t-94 269.5zM274 690q0 -115 60 -207t164 -143l80 670q-139 -6 -221.5 -92.5t-82.5 -227.5z" />
<glyph unicode="&#xa3;" horiz-adv-x="1030" d="M51 10q0 53 74 92q6 4 119 50q170 68 170 395q0 29 -33 28h-178q-23 0 -23 33t23 33h176q29 0 29 18q0 35 -4.5 107t-4.5 106q0 180 99 304q106 135 280 135q121 0 162 -37q25 -23 25 -72q0 -20 -20.5 -46t-39.5 -26q-4 0 -63.5 53.5t-143.5 53.5q-68 0 -108 -70 q-31 -55 -37 -131q-2 -35 -2 -78q0 -102 20 -286q4 -31 41 -31h242q23 0 23 -33t-23 -33h-240q-43 0 -43 -28q0 -229 -225 -383v-8q27 2 51 2q76 0 210 -58.5t198 -58.5q86 0 86 92q0 10 -2 31v31q0 66 49 65q33 0 53.5 -28.5t20.5 -63.5q0 -94 -111 -158q-96 -55 -196 -55 q-94 0 -239.5 66.5t-186.5 66.5q-27 0 -49.5 -18.5t-22.5 -44t-43 -41.5q-33 -12 -66 -13q-47 0 -47 39z" />
<glyph unicode="&#xa4;" horiz-adv-x="1062" d="M72 666q0 147 94 270q-90 90 -90 98q0 25 33.5 56.5t58.5 31.5q10 0 90 -100q121 82 256 82t256 -82q20 29 41 59q33 41 51 41t54 -33.5t36 -52.5q0 -10 -90 -100q94 -123 94 -270t-94 -271q90 -90 90 -98q0 -25 -33.5 -56.5t-58.5 -31.5q-10 0 -90 100 q-121 -82 -256 -82t-256 82q-20 -29 -41 -59q-33 -41 -51 -41t-54 33.5t-36 52.5q0 10 90 100q-94 123 -94 271zM188 666q0 -137 94.5 -240.5t231.5 -103.5q135 0 230.5 103t95.5 241q0 135 -95.5 239.5t-230.5 104.5t-230.5 -103.5t-95.5 -240.5z" />
<glyph unicode="&#xa5;" horiz-adv-x="1064" d="M6 1268q0 25 23 24q23 0 61 -4q49 -2 64 -4q37 0 110 -2q12 -2 32.5 -31.5t25.5 -46.5q4 -25 63 -149q43 -94 84 -189q57 -125 100 -176q14 14 129 249t115 259q0 16 19.5 51t33.5 37q29 0 84 2q10 0 41 2q25 2 39 2q23 0 23 -22q0 -18 -58 -31q-70 -14 -168 -203 l-161 -311h243q23 0 23 -33t-23 -33h-274q-20 -76 -21 -165h295q23 0 23 -33t-23 -33h-299v-408q0 -20 -20 -20h-107q-20 0 -20 20v408h-301q-23 0 -23 33t23 33h297q0 94 -33 165h-264q-23 0 -23 33t23 33h233l-180 350q-41 80 -51 92q-31 45 -82 64q-20 4 -59 16 q-16 6 -17 21z" />
<glyph unicode="&#xa6;" horiz-adv-x="423" d="M184 338q0 20 21 20h80q20 0 20 -20v-676q0 -20 -20 -20h-80q-20 0 -21 20v676zM184 686v676q0 20 21 20h80q20 0 20 -20v-676q0 -20 -20 -20h-80q-20 0 -21 20z" />
<glyph unicode="&#xa7;" horiz-adv-x="960" d="M102 848q0 201 172 368.5t373 167.5q53 0 98 -20q59 -27 60 -74q0 -25 -21.5 -45t-46.5 -20q-33 0 -101.5 37.5t-123.5 37.5q-53 0 -87 -34.5t-34 -87.5q0 -102 141 -242q248 -244 261 -258q141 -174 141 -361q0 -217 -169 -394t-386 -177q-59 0 -105 23q-59 26 -59 79 q0 74 72 74q27 0 91 -45t134 -45q55 0 98 37t43 90q0 82 -110 211q-35 43 -174 182q-131 131 -187 221q-80 129 -80 275zM203 938q0 -176 133 -340l250 -270q139 -166 147 -338q100 102 101 237q0 184 -132 340q-125 127 -247 254q-138 156 -146 336q-106 -96 -106 -219z " />
<glyph unicode="&#xa8;" horiz-adv-x="671" d="M82 1083q0 98 96 99q39 0 66.5 -27t27.5 -65q0 -100 -94 -101q-96 0 -96 94zM465 1083q0 43 27.5 71t70.5 28q39 0 65.5 -27t26.5 -65q0 -100 -92 -101q-98 0 -98 94z" />
<glyph unicode="&#xa9;" horiz-adv-x="1603" d="M92 676q0 301 208 504.5t509 203.5t509 -203.5t208 -504.5t-208 -505t-509 -204t-509 204t-208 505zM209 678q0 -262 171 -446.5t429 -184.5q260 0 430 184.5t170 446.5q0 260 -168 442q-174 184 -432 185q-258 0 -429 -183.5t-171 -443.5zM420 672q0 186 137 303 q131 109 322 108q119 0 233 -30q14 -4 16 -17q20 -86 21 -166q0 -23 -23 -22q-14 0 -20 15.5t-23 49.5q-66 115 -217 115q-141 0 -221 -104q-72 -94 -72 -240q0 -150 76 -250q84 -109 230 -108q133 0 215 125q14 29 39 69q6 6 14 6q25 0 24 -22q0 -31 -22 -103 q-23 -78 -41 -86q-35 -16 -116 -30.5t-126 -14.5q-188 0 -313 105q-133 113 -133 297z" />
<glyph unicode="&#xaa;" horiz-adv-x="718" d="M102 776q0 133 91.5 213t226.5 80q47 0 106 -18q88 -27 88 -47v-457q0 -12 -12 -12h-70q-14 0 -20 34q-74 -53 -154 -53q-115 0 -185.5 73t-70.5 187zM197 813q0 -92 59 -157.5t152 -65.5q45 -1 92 24q2 6 10 28t8 50v248q0 4 -10 14q-61 70 -131 70q-84 0 -132 -61.5 t-48 -149.5z" />
<glyph unicode="&#xab;" horiz-adv-x="782" d="M92 422q0 14 14 31q86 104 146 180q29 41 90 117q6 6 14 6q27 0 27 -25q0 -14 -73.5 -148t-73.5 -161q0 -12 6 -25q141 -285 141 -288q0 -25 -27 -25q-8 0 -14 8q-31 37 -89 113t-147 184q-14 19 -14 33zM389 422q0 14 14 31q86 104 146 180q29 41 90 117q6 6 14 6 q27 0 27 -25q0 -14 -74 -148t-74 -161q0 -12 7 -25q141 -285 141 -288q0 -25 -27 -25q-8 0 -14 8q-31 37 -89 113t-147 184q-14 19 -14 33z" />
<glyph unicode="&#xac;" horiz-adv-x="1058" d="M68 545v59q0 20 20 21h848q20 0 20 -21v-481q0 -20 -20 -21h-80q-20 0 -20 21v401h-748q-20 0 -20 21z" />
<glyph unicode="&#xad;" d="M66 410q0 49 26 51l459 45q39 2 39 -66q0 -49 -27 -51l-459 -45q-16 0 -27 23.5t-11 42.5z" />
<glyph unicode="&#xae;" horiz-adv-x="1603" d="M92 676q0 301 208 504.5t509 203.5t509 -203.5t208 -504.5t-208 -505t-509 -204t-509 204t-208 505zM209 678q0 -262 171 -446.5t429 -184.5q260 0 430 184.5t170 446.5q0 260 -168 442q-174 184 -432 185q-258 0 -429 -183.5t-171 -443.5zM469 1049q0 18 20 20q4 0 86 4 q102 2 216 2q281 0 280 -207q0 -129 -149 -194v-6q0 -10 8 -25q100 -162 112 -182q80 -117 140 -152q16 -10 16 -16q0 -23 -39 -23q-125 0 -213 117q-66 106 -133 215q-16 23 -63 23q-51 0 -52 -27v-166q0 -53 9 -72q14 -29 59 -36q18 -2 36.5 -6.5t18.5 -20.5 q0 -20 -22 -21q-27 0 -78 3.5t-76 3.5t-73 -2t-72 -2q-23 0 -23 20q0 16 21 20q55 14 61 21q16 12 19 66q2 16 2 47v432q0 94 -12.5 114.5t-55.5 25.5t-43 24zM698 723q0 -35 25 -41q4 -2 55 -2q164 0 164 174q0 72 -49 119t-121 47q-45 0 -53 -4q-21 -8 -21 -43v-250z" />
<glyph unicode="&#xaf;" horiz-adv-x="638" d="M109 1096q-1 57 26 57h467q29 0 29 -51q0 -53 -29 -53h-467q-27 0 -26 47z" />
<glyph unicode="&#xb0;" horiz-adv-x="673" d="M82 1047q0 115 79 189.5t195 74.5q117 0 196 -75t79 -189q0 -119 -78 -192t-197 -73t-196.5 73t-77.5 192zM197 1047q0 -78 42 -135.5t117 -57.5q76 0 118 57.5t42 135.5t-42 135t-118 57t-117.5 -57t-41.5 -135z" />
<glyph unicode="&#xb1;" horiz-adv-x="962" d="M119 20v60q0 20 20 20h748q20 0 20 -20v-60q0 -20 -20 -20h-748q-20 0 -20 20zM119 510v59q0 20 20 21h314v282q0 20 20 21h80q20 0 20 -21v-282h314q20 0 20 -21v-59q0 -20 -20 -21h-314v-296q0 -21 -20 -21h-80q-20 0 -20 21v296h-314q-20 0 -20 21z" />
<glyph unicode="&#xb2;" horiz-adv-x="751" d="M61 520q0 10 13 21q20 14 61 43q53 43 141 131q189 188 189 340q0 76 -40 124t-114 48q-92 0 -180 -123q-8 -10 -18 -10q-25 0 -25 20q0 74 109 139q96 57 176 58q102 0 171.5 -55.5t69.5 -155.5q0 -119 -122 -252q-102 -104 -205 -209q-12 -14 -13 -18q0 -16 29 -17h146 q78 0 106 8q45 12 84 60q8 8 16 8q23 0 23 -18q0 -20 -34 -90t-52 -70q-33 0 -100.5 2t-102.5 2h-182q-20 0 -60.5 -2t-60.5 -2q-25 0 -25 18z" />
<glyph unicode="&#xb3;" horiz-adv-x="690" d="M86 506q0 66 68 65q31 0 62.5 -45t70.5 -45t84 23q150 72 149 231q0 82 -45 132.5t-125 50.5q-51 0 -101 -28t-48 -28q-27 0 -27 37q0 14 74 45q96 39 135 68q74 51 74 121q0 49 -30 78.5t-79 29.5q-70 0 -127 -59.5t-59 -59.5q-18 0 -19 21q0 4 2 10q84 158 258 158 q74 0 129 -35q68 -41 68 -111q0 -94 -149 -164q-6 -8 -7 -12q0 -8 23 -8q86 0 143.5 -54.5t57.5 -140.5q0 -145 -148 -258q-137 -102 -289 -102q-145 0 -145 80z" />
<glyph unicode="&#xb4;" horiz-adv-x="663" d="M254 928q0 4 2 10q47 92 92 186q57 111 107 181q14 20 37 20q27 0 59.5 -27.5t32.5 -54.5q0 -25 -35 -61l-258 -271q-7 -6 -15 -6q-23 0 -22 23z" />
<glyph unicode="&#xb6;" horiz-adv-x="884" d="M121 913q0 231 176 344q147 94 393 95q225 0 246 -13q10 -6 10 -22q0 -18 -37 -27q-25 -2 -51 -6q-76 -12 -92 -33.5t-16 -101.5v-950q0 -172 -37 -260q-58 -134 -205 -134q-76 0 -125 37q-55 41 -55 113q0 31 19.5 68.5t45.5 37.5q20 0 58 -19t38 -38q0 -4 -13 -25.5 t-13 -48.5q0 -63 67 -63q113 0 113 260v309q0 66 -35 66q-195 0 -334 106q-154 117 -153 305z" />
<glyph unicode="&#xb7;" horiz-adv-x="391" d="M141 416q0 51 32 86t83 35t83 -35t32 -86t-32 -82t-83 -31q-49 0 -82 32t-33 81z" />
<glyph unicode="&#xb8;" horiz-adv-x="499" d="M203 -381q0 53 51 53q23 0 58.5 -29.5t49.5 -29.5q55 0 56 63q0 53 -62.5 96.5t-62.5 53.5q0 6 106 166q6 8 39 8q23 0 23 -14q0 -16 -22.5 -43t-22.5 -37q0 -6 59.5 -60.5t59.5 -117.5q0 -78 -67 -129.5t-146 -51.5q-119 0 -119 72z" />
<glyph unicode="&#xb9;" d="M172 1219q0 16 21 20q31 6 92 21q8 2 75 26q59 20 70 21q16 0 16 -23v-45q-2 -31 -2 -45v-532q0 -74 19 -91q12 -10 94 -26q18 -2 18 -23q0 -20 -20 -20q-31 0 -90 2t-90 2q-29 0 -86.5 -2t-85.5 -2q-20 0 -21 20q0 20 45 27q61 6 76 33q10 18 10 90v405q0 84 -18 99 q-8 8 -100 24q-23 2 -23 19z" />
<glyph unicode="&#xba;" horiz-adv-x="817" d="M66 791q0 139 98 227t239 88q135 0 229.5 -83t94.5 -218q0 -143 -96 -228t-240 -85q-139 0 -229 79q-96 85 -96 220zM217 811q0 -102 43 -176q51 -90 146 -90q88 0 133 80q37 63 36 157q0 100 -43 179q-53 92 -145 92q-84 0 -131 -84q-39 -68 -39 -158z" />
<glyph unicode="&#xbb;" horiz-adv-x="677" d="M94 731q0 25 27 25q8 0 14 -6q31 -39 90.5 -116t145.5 -181q14 -16 14 -31q0 -14 -14 -33q-88 -109 -146 -182q-29 -39 -90 -115q-6 -8 -14 -8q-25 0 -25 25q0 6 140 288q6 12 6 25q0 27 -74 161t-74 148zM391 731q0 25 27 25q8 0 14 -6q31 -39 90.5 -116t145.5 -181 q14 -16 14 -31q0 -14 -14 -33q-88 -109 -146 -182q-29 -39 -90 -115q-6 -8 -14 -8q-25 0 -25 25q0 6 139 288q6 12 7 25q0 27 -74 161t-74 148z" />
<glyph unicode="&#xbc;" horiz-adv-x="1486" d="M84 1219q0 16 20 20q31 6 93 21q8 2 75 26q59 20 70 21q16 0 16 -23v-45q-2 -31 -2 -45v-532q0 -74 19 -91q12 -10 94 -26q18 -2 18 -23q0 -20 -20 -20q-31 0 -90.5 2t-89.5 2q-29 0 -86.5 -2t-85.5 -2q-20 0 -21 20q0 20 45 27q61 6 76 33q10 18 10 90v405q0 84 -18 99 q-8 8 -101 24q-23 2 -22 19zM283 -37l4 14l600 916q92 145 282 436q6 8 17 8q14 0 31.5 -14t17.5 -31q0 -6 -2 -10l-547 -829q-113 -176 -342 -525q-6 -10 -16 -10q-33 0 -45 45zM819 258q0 16 19 41l436 561q18 25 43 25l13 7q12 7 18 7q14 0 14 -25q0 -16 -217 -284 t-217 -285q8 -8 26 -8h203q37 0 37 33v223q0 47 106 47q23 0 23 -39v-235q0 -29 31 -29h65q23 0 23 -29q0 -31 -23 -30h-57q-25 0 -32 -5.5t-7 -27.5v-82q0 -53 27 -68q10 -4 80 -14q18 -4 18 -25q0 -20 -21 -20q-29 0 -84 2t-83 2q-29 0 -87.5 -2t-87.5 -2q-20 0 -20 22 q0 18 18 23q74 10 86 16q25 16 25 78v66q0 25 -6 31t-33 6h-315q-20 0 -21 20z" />
<glyph unicode="&#xbd;" horiz-adv-x="1585" d="M98 1219q0 16 21 20q31 6 92 21q8 2 76 26q59 20 69 21q16 0 17 -23v-45q-2 -31 -2 -45v-532q0 -74 18 -91q12 -10 94 -26q18 -2 19 -23q0 -20 -21 -20q-31 0 -90 2t-90 2q-29 0 -86 -2t-86 -2q-20 0 -20 20t45 27q61 6 75 33q10 18 11 90v405q0 84 -19 99q-8 8 -100 24 q-23 2 -23 19zM266 -37l4 14l600 916q92 145 283 436q6 8 16 8q14 0 32 -14t18 -31q0 -6 -2 -10l-547 -829q-113 -176 -342 -525q-6 -10 -17 -10q-33 0 -45 45zM911 14q0 10 13 21q20 14 61 43q53 43 141 131q189 188 189 340q0 76 -40 124t-114 48q-92 0 -180 -123 q-8 -10 -18 -10q-25 0 -25 20q0 74 109 140q96 57 176 57q102 0 171.5 -55.5t69.5 -155.5q0 -119 -123 -252q-102 -104 -204 -209q-12 -14 -13 -18q0 -16 29 -17h145q78 0 107 8q45 12 84 60q8 8 16 8q23 0 23 -18q0 -20 -34 -90t-52 -70q-33 0 -100.5 2t-102.5 2h-182 q-20 0 -60.5 -2t-60.5 -2q-25 0 -25 18z" />
<glyph unicode="&#xbe;" horiz-adv-x="1529" d="M76 506q0 66 67 65q31 0 63 -45t70 -45q39 0 84 23q150 72 150 231q0 82 -45 132.5t-125 50.5q-51 0 -101.5 -28t-48.5 -28q-27 0 -26 37q0 14 74 45q96 39 135 68q74 51 73 121q0 49 -29.5 78.5t-78.5 29.5q-70 0 -127 -59.5t-59 -59.5q-18 0 -19 21q0 4 2 10 q84 158 258 158q74 0 129 -35q68 -41 68 -111q0 -94 -150 -164q-6 -8 -6 -12q0 -8 23 -8q86 0 143 -54.5t57 -140.5q0 -145 -147 -258q-137 -102 -289 -102q-145 0 -145 80zM354 -37l4 14l600 916q92 145 283 436q6 8 16 8q14 0 32 -14t18 -31q0 -6 -2 -10l-547 -829 q-113 -176 -342 -525q-6 -10 -17 -10q-33 0 -45 45zM860 258q0 16 19 41l436 561q18 25 43 25l12 7q13 7 19 7q14 0 14 -25q0 -16 -217 -284t-217 -285q8 -8 26 -8h203q37 0 37 33v223q0 47 106 47q23 0 23 -39v-235q0 -29 31 -29h65q23 0 23 -29q0 -31 -23 -30h-57 q-25 0 -32 -5.5t-7 -27.5v-82q0 -53 27 -68q10 -4 79 -14q18 -4 19 -25q0 -20 -21 -20q-29 0 -84 2t-84 2t-87 -2t-87 -2q-20 0 -20 22q0 18 18 23q74 10 86 16q25 16 25 78v66q0 25 -6 31t-33 6h-315q-20 0 -21 20z" />
<glyph unicode="&#xbf;" horiz-adv-x="593" d="M92 -127q0 123 80 188q23 18 152 78q80 39 79 94q0 23 -9 63t-9 50q0 23 25 23q27 0 59 -93q31 -82 31 -116q0 -88 -111 -148q-119 -63 -137 -75q-76 -55 -76 -127q0 -190 283 -191q25 0 46 -29.5t21 -56.5q0 -78 -82 -78q-139 0 -249 142q-103 133 -103 276zM287 686 q0 51 31.5 86t82.5 35t83 -35t32 -86t-31.5 -82t-83.5 -31q-49 0 -81.5 32t-32.5 81z" />
<glyph unicode="&#xc0;" horiz-adv-x="1146" d="M94 18q203 524 441 1143q29 76 36 131q0 12 13 19q49 29 86 65q8 8 14 8q16 0 33 -45q8 -29 16 -57q18 -61 232 -674q205 -586 204 -590q0 -18 -20 -18h-145q-14 0 -19 14l-151 461q-17 51 -70 51h-324q-35 0 -46 -11t-23 -48q-4 -10 -115 -311q-20 -57 -55 -142 q-6 -14 -84 -14q-23 0 -23 18zM270 1626q0 23 26 59.5t46 36.5t55 -26l314 -240q8 -6 8 -14q0 -25 -21 -25q-6 0 -10 2l-360 158q-58 24 -58 49zM420 625q0 -16 31 -17h280q47 0 47 23q0 20 -75 243.5t-93 260.5h-4q-20 -37 -103 -263.5t-83 -246.5z" />
<glyph unicode="&#xc1;" horiz-adv-x="1146" d="M94 18q203 524 441 1143q29 76 36 131q0 12 13 19q49 29 86 65q8 8 14 8q16 0 33 -45q8 -29 16 -57q18 -61 232 -674q205 -586 204 -590q0 -18 -20 -18h-145q-14 0 -19 14l-151 461q-17 51 -70 51h-324q-35 0 -46 -11t-23 -48q-4 -10 -115 -311q-20 -57 -55 -142 q-6 -14 -84 -14q-23 0 -23 18zM420 625q0 -16 31 -17h280q47 0 47 23q0 20 -75 243.5t-93 260.5h-4q-20 -37 -103 -263.5t-83 -246.5zM584 1442q0 8 8 14l313 240q35 27 56 26q20 0 45.5 -36.5t25.5 -59.5q0 -25 -57 -49l-361 -158q-4 -2 -8 -2q-23 0 -22 25z" />
<glyph unicode="&#xc2;" horiz-adv-x="1150" d="M94 18q203 524 441 1143q29 76 36 131q0 12 13 19q49 29 86 65q8 8 14 8q16 0 33 -45q8 -29 16 -57q18 -61 232 -674q205 -586 204 -590q0 -18 -20 -18h-145q-14 0 -19 14l-151 461q-17 51 -70 51h-324q-35 0 -46 -11t-23 -48q-4 -10 -115 -311q-20 -57 -55 -142 q-6 -14 -84 -14q-23 0 -23 18zM358 1438q0 8 7 14l251 242q23 20 43 20q23 0 46 -20l251 -242q6 -6 7 -16q0 -6 -5 -13h-4q-27 0 -153 71t-142 71q-25 0 -143.5 -76t-134.5 -76q-23 0 -23 25zM420 625q0 -16 31 -17h280q47 0 47 23q0 20 -75 243.5t-93 260.5h-4 q-20 -37 -103 -263.5t-83 -246.5z" />
<glyph unicode="&#xc3;" horiz-adv-x="1148" d="M94 18q203 524 441 1143q29 76 36 131q0 12 13 19q49 29 86 65q8 8 14 8q16 0 33 -45q8 -29 16 -57q18 -61 232 -674q205 -586 204 -590q0 -18 -20 -18h-145q-14 0 -19 14l-151 461q-17 51 -70 51h-324q-35 0 -46 -11t-23 -48q-4 -10 -115 -311q-20 -57 -55 -142 q-6 -14 -84 -14q-23 0 -23 18zM356 1432q0 74 59.5 133t131.5 59h223q63 0 100 23q23 14 43 45q16 23 29 22q18 0 19 -20q0 -16 -30 -67.5t-46 -70.5q-33 -37 -103 -36h-219q-68 0 -108 -29q-25 -16 -49 -51q-19 -27 -31 -27q-18 0 -19 19zM420 625q0 -16 31 -17h280 q47 0 47 23q0 20 -75 243.5t-93 260.5h-4q-20 -37 -103 -263.5t-83 -246.5z" />
<glyph unicode="&#xc4;" horiz-adv-x="1148" d="M94 18q203 524 441 1143q29 76 36 131q0 12 13 19q49 29 86 65q8 8 14 8q16 0 33 -45q8 -29 16 -57q18 -61 232 -674q205 -586 204 -590q0 -18 -20 -18h-145q-14 0 -19 14l-151 461q-17 51 -70 51h-324q-35 0 -46 -11t-23 -48q-4 -10 -115 -311q-20 -57 -55 -142 q-6 -14 -84 -14q-23 0 -23 18zM356 1548q0 47 29 78t74 31q41 0 70.5 -31t29.5 -72q0 -45 -27.5 -75.5t-72.5 -30.5q-103 0 -103 100zM420 625q0 -16 31 -17h280q47 0 47 23q0 20 -75 243.5t-93 260.5h-4q-20 -37 -103 -263.5t-83 -246.5zM760 1548q0 45 29.5 77t74.5 32 q41 0 70 -31t29 -72q0 -45 -27 -75.5t-72 -30.5q-104 0 -104 100z" />
<glyph unicode="&#xc5;" horiz-adv-x="1148" d="M94 18q203 524 441 1143q29 78 36 131q0 12 18.5 22.5t33.5 18.5q-55 10 -93 53.5t-38 100.5q0 66 48 110.5t115 44.5q68 0 116 -45t48 -110q0 -106 -102 -146q20 -74 241 -706q211 -614 211 -617q0 -18 -20 -18h-145q-14 0 -19 14l-151 461q-16 51 -70 51h-324 q-35 0 -46 -11t-23 -48q-4 -12 -115 -311q-20 -57 -55 -142q-6 -14 -84 -14q-23 0 -23 18zM420 625q0 -16 31 -17h280q47 0 47 23q0 20 -75 243.5t-93 260.5h-4q-20 -37 -103 -263.5t-83 -246.5zM569 1487q0 -41 23.5 -72t62.5 -31q41 0 63.5 31t22.5 72t-23.5 71.5 t-62.5 30.5t-62.5 -30.5t-23.5 -71.5z" />
<glyph unicode="&#xc6;" horiz-adv-x="1691" d="M-100 20q0 23 30 29l50 8q53 14 86 56q12 16 53 90q547 995 547 1061q0 23 -89.5 29.5t-89.5 37.5q0 27 23 27q37 0 110.5 -3t110.5 -3h608q33 0 99.5 2t101.5 2q16 0 21 -17q8 -23 18 -116t10 -125q0 -25 -28 -25q-20 0 -31 27q-6 20 -10 41q-41 115 -138 137 q-43 10 -198 10h-148q-47 0 -55 -16q-4 -8 -4 -66v-409q0 -43 10 -50.5t57 -7.5h119q141 0 174 13q41 16 54 96q12 72 34 72q31 0 31 -23q0 -33 -4 -99.5t-4 -99.5q0 -31 4 -94t4 -94q0 -23 -26 -23q-25 0 -40.5 77t-68.5 93q-33 10 -277 11q-45 0 -53 -6q-14 -8 -14 -50 v-288q0 -186 55 -230q43 -31 242 -31q154 0 196 13q84 23 146 121q16 29 49 90q8 10 23 10q31 0 30 -23q0 -20 -36.5 -134.5t-46 -130t-21.5 -15.5q-80 0 -241 3t-243 3h-260q-41 0 -121.5 -3t-121.5 -3q-23 0 -23 26q0 25 39 31q31 2 59 4q76 16 97 66q10 27 10 123v364 q0 49 -21 58q-6 2 -69 2h-168q-63 0 -80.5 -13.5t-52.5 -76.5q-221 -412 -221 -484q0 -27 45 -33l100 -14q20 -4 20 -29t-22 -24q-35 0 -106.5 3t-108.5 3q-35 0 -102.5 -3t-100.5 -3q-23 0 -22 26zM506 745q18 -6 63 -6h150q63 0 72 4q18 10 18 62v399q0 47 -14 74h-9 q-39 -29 -264 -494q-6 -12 -16 -39z" />
<glyph unicode="&#xc7;" horiz-adv-x="1374" d="M90 668q0 332 244 530q229 186 567 186q139 0 363 -49q16 -4 33.5 -8t25.5 -18l2 -43q4 -63 14 -160q8 -74 9 -68q0 -25 -29 -24q-20 0 -27 16q-8 33 -35 96q-98 195 -383 195q-274 0 -430 -176q-150 -168 -149 -447q0 -289 158 -473q168 -195 450 -194q250 0 379 196 q14 29 47 88q6 14 25 15q29 0 28 -27q0 -4 -10 -47q-53 -209 -94 -223q-184 -59 -363 -64q-41 -47 -41 -65q0 -10 61.5 -62.5t61.5 -124.5q0 -82 -69.5 -135t-153.5 -53q-123 0 -123 74q0 57 54 57q25 0 61.5 -31.5t50.5 -31.5q57 0 57 67q0 57 -67.5 102.5t-67.5 53.5 q1 -1 103 149q-287 16 -461 135q-291 201 -291 564z" />
<glyph unicode="&#xc8;" horiz-adv-x="1077" d="M94 1329q0 29 23 29q35 0 106.5 -3t108.5 -3h471q31 0 95.5 2t96.5 2q14 0 21.5 -17.5t16.5 -115t9 -125.5q0 -25 -26 -25q-20 0 -27.5 22.5t-13.5 43.5q-39 113 -137 137q-47 12 -176 12h-183q-35 0 -43 -16q-6 -8 -6 -49v-426q0 -43 10.5 -50.5t57.5 -7.5h387 q20 0 20 -28q0 -43 -24 -43h-383q-45 0 -54 -6q-14 -8 -14 -50v-301q0 -160 38 -199.5t556 -39.5q68 0 49 2q33 -4 33 -25q0 -12 -10.5 -30.5t-22.5 -18.5h-790q-20 0 -21 20l2 1127q0 70 -18 98q-20 37 -84 51q-23 4 -45.5 9.5t-22.5 23.5zM246 1626q0 23 25.5 59.5 t45.5 36.5t56 -26l313 -240q8 -6 8 -14q0 -25 -20 -25q-6 0 -10 2l-361 158q-57 24 -57 49z" />
<glyph unicode="&#xc9;" horiz-adv-x="1077" d="M94 1329q0 29 23 29q35 0 106.5 -3t108.5 -3h471q31 0 95.5 2t96.5 2q14 0 21.5 -17.5t16.5 -115t9 -125.5q0 -25 -26 -25q-20 0 -27.5 22.5t-13.5 43.5q-39 113 -137 137q-47 12 -176 12h-183q-35 0 -43 -16q-6 -8 -6 -49v-426q0 -43 10.5 -50.5t57.5 -7.5h387 q20 0 20 -28q0 -43 -24 -43h-383q-45 0 -54 -6q-14 -8 -14 -50v-301q0 -160 38 -199.5t556 -39.5q68 0 49 2q33 -4 33 -25q0 -12 -10.5 -30.5t-22.5 -18.5h-790q-20 0 -21 20l2 1127q0 70 -18 98q-20 37 -84 51q-23 4 -45.5 9.5t-22.5 23.5zM543 1442q0 8 8 14l313 240 q35 27 56 26q20 0 45.5 -36.5t25.5 -59.5q0 -25 -57 -49l-361 -158q-4 -2 -8 -2q-23 0 -22 25z" />
<glyph unicode="&#xca;" horiz-adv-x="1087" d="M94 1329q0 29 23 29q35 0 106.5 -3t108.5 -3h471q31 0 95.5 2t96.5 2q14 0 21.5 -17.5t16.5 -115t9 -125.5q0 -25 -26 -25q-20 0 -27.5 22.5t-13.5 43.5q-39 113 -137 137q-47 12 -176 12h-183q-35 0 -43 -16q-6 -8 -6 -49v-426q0 -43 10.5 -50.5t57.5 -7.5h387 q20 0 20 -28q0 -43 -24 -43h-383q-45 0 -54 -6q-14 -8 -14 -50v-301q0 -160 38 -199.5t556 -39.5q68 0 49 2q33 -4 33 -25q0 -12 -10.5 -30.5t-22.5 -18.5h-790q-20 0 -21 20l2 1127q0 70 -18 98q-20 37 -84 51q-23 4 -45.5 9.5t-22.5 23.5zM328 1438q0 8 6 14l252 242 q23 20 43 20q23 0 45 -20l252 -242q6 -6 6 -16q0 -6 -4 -13h-4q-27 0 -153 71t-142 71q-25 0 -143.5 -76t-135.5 -76q-23 0 -22 25z" />
<glyph unicode="&#xcb;" horiz-adv-x="1073" d="M94 1329q0 29 23 29q35 0 106.5 -3t108.5 -3h471q31 0 95.5 2t96.5 2q14 0 21.5 -17.5t16.5 -115t9 -125.5q0 -25 -26 -25q-20 0 -27.5 22.5t-13.5 43.5q-39 113 -137 137q-47 12 -176 12h-183q-35 0 -43 -16q-6 -8 -6 -49v-426q0 -43 10.5 -50.5t57.5 -7.5h387 q20 0 20 -28q0 -43 -24 -43h-383q-45 0 -54 -6q-14 -8 -14 -50v-301q0 -160 38 -199.5t556 -39.5q68 0 49 2q33 -4 33 -25q0 -12 -10.5 -30.5t-22.5 -18.5h-790q-20 0 -21 20l2 1127q0 70 -18 98q-20 37 -84 51q-23 4 -45.5 9.5t-22.5 23.5zM315 1548q0 47 29 78t74 31 q41 0 70.5 -31t29.5 -72q0 -45 -27.5 -75.5t-72.5 -30.5q-103 0 -103 100zM719 1548q0 45 29.5 77t74.5 32q41 0 70 -31t29 -72q0 -45 -27 -75.5t-72 -30.5q-104 0 -104 100z" />
<glyph unicode="&#xcc;" horiz-adv-x="571" d="M-27 1626q0 23 26 59.5t46 36.5t55 -26l314 -240q8 -6 8 -14q0 -25 -21 -25q-6 0 -10 2l-360 158q-58 24 -58 49zM76 1327q0 23 22 25h54q41 -2 53 -2q35 0 102 2h103q20 0 20 -21v-1311q0 -20 -20 -20h-125q-20 0 -21 20l-2 1121q0 98 -35 129q-27 23 -133 37 q-18 2 -18 20z" />
<glyph unicode="&#xcd;" horiz-adv-x="679" d="M76 1327q0 23 22 25h54q41 -2 53 -2q35 0 102 2h103q20 0 20 -21v-1311q0 -20 -20 -20h-125q-20 0 -21 20l-2 1121q0 98 -35 129q-27 23 -133 37q-18 2 -18 20zM281 1442q0 8 8 14l313 240q35 27 55 26q20 0 46 -36.5t26 -59.5q0 -25 -57 -49l-361 -158q-4 -2 -8 -2 q-23 0 -22 25z" />
<glyph unicode="&#xce;" horiz-adv-x="602" d="M45 1438q0 8 6 14l252 242q23 20 43 20q23 0 45 -20l252 -242q6 -6 6 -16q0 -6 -4 -13h-4q-27 0 -153 71t-142 71q-25 0 -143.5 -76t-134.5 -76q-23 0 -23 25zM76 1327q0 23 22 25h54q41 -2 53 -2q35 0 102 2h103q20 0 20 -21v-1311q0 -20 -20 -20h-125q-20 0 -21 20 l-2 1121q0 98 -35 129q-27 23 -133 37q-18 2 -18 20z" />
<glyph unicode="&#xcf;" horiz-adv-x="634" d="M43 1548q0 47 28.5 78t73.5 31q41 0 71 -31t30 -72q0 -45 -28 -75.5t-73 -30.5q-102 0 -102 100zM139 1327q0 23 21 25h53q41 -2 53 -2q35 0 103 2h102q20 0 21 -21v-1311q0 -20 -21 -20h-125q-20 0 -20 20v1121q0 98 -35 129q-29 23 -133 37q-18 2 -19 20zM446 1548 q0 45 30 77t75 32q41 0 69.5 -31t28.5 -72q0 -45 -26.5 -75.5t-71.5 -30.5q-105 0 -105 100z" />
<glyph unicode="&#xd0;" horiz-adv-x="1574" d="M109 1315q0 23 20 26q8 2 156 9q184 8 352 8q287 0 450 -62q199 -74 307.5 -232.5t108.5 -371.5q0 -414 -358 -610q-180 -98 -459 -98q-76 0 -266 10q-51 0 -137 6q-20 2 -21 20v701h-94q-20 0 -21 49q0 20 21 21h94v319q0 82 -8 107q-16 47 -78 63q-23 4 -45 9t-22 26z M430 354q0 -180 57.5 -243.5t235.5 -63.5q289 0 438 180q137 166 137 461q0 289 -178 451q-174 156 -467 155q-168 0 -202 -28q-20 -16 -21 -156v-319h129q20 0 21 -50q0 -20 -21 -20h-129v-367z" />
<glyph unicode="&#xd1;" horiz-adv-x="1497" d="M41 1329q0 23 20 23h263q55 0 63 -9q35 -45 92 -118q82 -109 252 -318q176 -201 537 -594h2q10 23 10 86v936q0 20 20 21q37 0 112 -2t114 -2q23 0 22 -23q0 -18 -67 -33q-74 -14 -86 -36q-31 -55 -31 -342v-570q0 -158 2 -250q0 -16 2 -50t2 -52q0 -27 -29 -27 q-10 0 -16 8q-25 31 -74 91q-61 72 -182 208l-475 541q-78 94 -238 277h-4q-10 -43 -10 -133v-941q0 -20 -68 -20q-20 0 -20 20l4 1086q0 82 -25 121q-27 49 -100 65q-25 4 -74 13q-18 6 -18 24zM541 1432q0 74 59 133t131 59h223q63 0 101 23q23 14 43 45q16 23 28 22 q18 0 19 -20q0 -16 -30 -67.5t-46 -70.5q-33 -37 -102 -36h-219q-68 0 -109 -29q-25 -16 -49 -51q-19 -27 -31 -27q-18 0 -18 19z" />
<glyph unicode="&#xd2;" horiz-adv-x="1603" d="M94 662q0 311 209 516.5t520 205.5q313 0 512 -194.5t199 -507.5q0 -303 -204 -509t-507 -206q-309 0 -516 191q-213 197 -213 504zM299 727q0 -281 133 -473q150 -223 418 -223q233 0 364 182q115 162 115 405q0 287 -123 478q-145 225 -418 225q-100 0 -190 -39 q-299 -131 -299 -555zM453 1626q0 23 25.5 59.5t45.5 36.5t56 -26l313 -240q8 -6 8 -14q0 -25 -20 -25q-6 0 -11 2l-360 158q-57 24 -57 49z" />
<glyph unicode="&#xd3;" horiz-adv-x="1603" d="M94 662q0 311 209 516.5t520 205.5q313 0 512 -194.5t199 -507.5q0 -303 -204 -509t-507 -206q-309 0 -516 191q-213 197 -213 504zM299 727q0 -281 133 -473q150 -223 418 -223q233 0 364 182q115 162 115 405q0 287 -123 478q-145 225 -418 225q-100 0 -190 -39 q-299 -131 -299 -555zM719 1442q0 8 8 14l313 240q35 27 56 26q20 0 45.5 -36.5t25.5 -59.5q0 -25 -57 -49l-360 -158q-5 -2 -9 -2q-23 0 -22 25z" />
<glyph unicode="&#xd4;" horiz-adv-x="1607" d="M94 662q0 311 209 516.5t520 205.5q313 0 512 -194.5t199 -507.5q0 -303 -204 -509t-507 -206q-309 0 -516 191q-213 197 -213 504zM299 727q0 -281 133 -473q150 -223 418 -223q233 0 364 182q115 162 115 405q0 287 -123 478q-145 225 -418 225q-100 0 -190 -39 q-299 -131 -299 -555zM514 1438q0 8 6 14l252 242q23 20 43 20q23 0 45 -20l252 -242q6 -6 6 -16q0 -6 -4 -13h-4q-27 0 -153 71t-142 71q-25 0 -143.5 -76t-134.5 -76q-23 0 -23 25z" />
<glyph unicode="&#xd5;" horiz-adv-x="1607" d="M94 662q0 311 209 516.5t520 205.5q313 0 512 -194.5t199 -507.5q0 -303 -204 -509t-507 -206q-309 0 -516 191q-213 197 -213 504zM299 727q0 -281 133 -473q150 -223 418 -223q233 0 364 182q115 162 115 405q0 287 -123 478q-145 225 -418 225q-100 0 -190 -39 q-299 -131 -299 -555zM512 1432q0 74 59.5 133t130.5 59h224q63 0 100 23q23 14 43 45q16 23 29 22q18 0 18 -20q0 -16 -29.5 -67.5t-46.5 -70.5q-33 -37 -102 -36h-219q-68 0 -109 -29q-25 -16 -49 -51q-19 -27 -31 -27q-18 0 -18 19z" />
<glyph unicode="&#xd6;" horiz-adv-x="1607" d="M94 662q0 311 209 516.5t520 205.5q313 0 512 -194.5t199 -507.5q0 -303 -204 -509t-507 -206q-309 0 -516 191q-213 197 -213 504zM299 727q0 -281 133 -473q150 -223 418 -223q233 0 364 182q115 162 115 405q0 287 -123 478q-145 225 -418 225q-100 0 -190 -39 q-299 -131 -299 -555zM512 1548q0 47 28.5 78t73.5 31q41 0 71 -31t30 -72q0 -45 -28 -75.5t-73 -30.5q-102 0 -102 100zM915 1548q0 45 30 77t75 32q41 0 69.5 -31t28.5 -72q0 -45 -26.5 -75.5t-71.5 -30.5q-105 0 -105 100z" />
<glyph unicode="&#xd7;" horiz-adv-x="968" d="M143 104q0 8 4 13l287 291l-287 286q-4 4 -4 13q0 20 23.5 45.5t44.5 25.5q8 0 12 -4l289 -289l291 293q4 4 12 4q20 0 44 -24.5t24 -44.5q0 -8 -4 -13l-289 -292l289 -291q4 -4 4 -13q0 -20 -23.5 -45.5t-44.5 -25.5q-8 0 -12 4l-291 293l-289 -293q-4 -4 -12 -4 q-20 0 -44 25.5t-24 45.5z" />
<glyph unicode="&#xd8;" horiz-adv-x="1585" d="M94 662q0 311 209 516.5t520 205.5q229 0 412 -112l108 137q6 8 17 8q16 0 33.5 -14t17.5 -31q0 -6 -111 -147q233 -211 234 -549q0 -301 -205 -505t-506 -204q-231 0 -424 121l-131 -162q-4 -6 -14 -6q-16 0 -32.5 14.5t-16.5 30.5q0 6 131 170q-242 209 -242 527z M299 727q0 -262 133 -471l719 909q-147 156 -363 156q-106 0 -202 -45q-287 -135 -287 -549zM481 193q150 -162 369 -162q233 0 364 182q115 162 115 405q0 274 -129 482z" />
<glyph unicode="&#xd9;" horiz-adv-x="1443" d="M61 1329q0 20 23 23q-16 -2 106 -2q35 0 103 2h100q20 0 21 -21v-727q0 -547 415 -547q410 0 410 545v725q0 20 21 21q39 0 115.5 2t113.5 2q23 0 22 -23q0 -20 -65 -26q-74 -8 -94 -48q-29 -55 -29 -370v-279q0 -334 -141.5 -486.5t-393.5 -152.5q-295 0 -423 154 q-119 141 -119 442v582q0 78 -20.5 111.5t-92.5 46.5q-16 0 -53 6q-18 2 -19 20zM432 1626q0 23 25.5 59.5t46.5 36.5q20 0 55 -26l313 -240q8 -6 9 -14q0 -25 -21 -25q-6 0 -10 2l-361 158q-57 24 -57 49z" />
<glyph unicode="&#xda;" horiz-adv-x="1443" d="M61 1329q0 20 23 23q-16 -2 106 -2q35 0 103 2h100q20 0 21 -21v-727q0 -547 415 -547q410 0 410 545v725q0 20 21 21q39 0 115.5 2t113.5 2q23 0 22 -23q0 -20 -65 -26q-74 -8 -94 -48q-29 -55 -29 -370v-279q0 -334 -141.5 -486.5t-393.5 -152.5q-295 0 -423 154 q-119 141 -119 442v582q0 78 -20.5 111.5t-92.5 46.5q-16 0 -53 6q-18 2 -19 20zM719 1442q0 8 8 14l313 240q35 27 56 26q20 0 45.5 -36.5t25.5 -59.5q0 -25 -57 -49l-360 -158q-5 -2 -9 -2q-23 0 -22 25z" />
<glyph unicode="&#xdb;" horiz-adv-x="1443" d="M61 1329q0 20 23 23q-16 -2 106 -2q35 0 103 2h100q20 0 21 -21v-727q0 -547 415 -547q410 0 410 545v725q0 20 21 21q39 0 115.5 2t113.5 2q23 0 22 -23q0 -20 -65 -26q-74 -8 -94 -48q-29 -55 -29 -370v-279q0 -334 -141.5 -486.5t-393.5 -152.5q-295 0 -423 154 q-119 141 -119 442v582q0 78 -20.5 111.5t-92.5 46.5q-16 0 -53 6q-18 2 -19 20zM504 1438q0 8 6 14l252 242q23 20 43 20q23 0 45 -20l252 -242q6 -6 6 -16q0 -6 -4 -13h-4q-27 0 -153 71t-142 71q-25 0 -143.5 -76t-135.5 -76q-23 0 -22 25z" />
<glyph unicode="&#xdc;" horiz-adv-x="1443" d="M61 1329q0 20 23 23q-16 -2 106 -2q35 0 103 2h100q20 0 21 -21v-727q0 -547 415 -547q410 0 410 545v725q0 20 21 21q39 0 115.5 2t113.5 2q23 0 22 -23q0 -20 -65 -26q-74 -8 -94 -48q-29 -55 -29 -370v-279q0 -334 -141.5 -486.5t-393.5 -152.5q-295 0 -423 154 q-119 141 -119 442v582q0 78 -20.5 111.5t-92.5 46.5q-16 0 -53 6q-18 2 -19 20zM481 1548q0 47 29 78t74 31q41 0 70.5 -31t29.5 -72q0 -45 -27.5 -75.5t-72.5 -30.5q-103 0 -103 100zM885 1548q0 45 29.5 77t74.5 32q41 0 69.5 -31t28.5 -72q0 -45 -26.5 -75.5 t-71.5 -30.5q-104 0 -104 100z" />
<glyph unicode="&#xdd;" horiz-adv-x="1308" d="M-14 1327q0 25 22 25q45 0 136.5 -4.5t136.5 -4.5q10 0 18 -12l33 -65l76 -152q76 -156 235 -461l277 473q55 94 88 154q10 20 32 61q8 10 19 11h55q39 -2 57 -2q72 0 58 2q23 -2 22 -25q0 -18 -25.5 -23.5t-45.5 -9.5q-74 -20 -133 -100q-27 -37 -134 -221l-129 -223 q-66 -113 -79 -160q-16 -55 -17 -172v-398q0 -20 -20 -20h-127q-20 0 -21 20v396q0 86 -11 129t-54 125l-242 471q-37 72 -53 92q-33 43 -86 57q-23 4 -72 15q-16 6 -16 22zM594 1442q0 8 8 14l313 240q35 27 56 26q20 0 45.5 -36.5t25.5 -59.5q0 -25 -57 -49l-360 -158 q-5 -2 -9 -2q-23 0 -22 25z" />
<glyph unicode="&#xde;" horiz-adv-x="1093" d="M78 1329q0 25 22 29q-2 0 43 0q43 0 130 3t130 3q16 0 21 -18q2 -2 4 -74q2 -90 2 -185h166q203 0 324 -79q141 -94 141 -287q0 -176 -143 -275q-125 -86 -308 -86q-47 1 -47 21q0 14 19 20q35 6 102 25q190 72 190 287q0 152 -87 231.5t-240 79.5q-74 0 -86 -4 q-31 -12 -31 -68v-932q0 -20 -20 -20h-127q-20 0 -21 20v1108q0 84 -14 113q-23 43 -96 57q-23 2 -48.5 6.5t-25.5 24.5z" />
<glyph unicode="&#xdf;" horiz-adv-x="1060" d="M61 743q0 16 61.5 42t61.5 59q0 199 72 350q59 123 162 195q111 76 241 75q125 0 206 -73.5t81 -198.5q0 -94 -74 -180q-66 -66 -133 -131q-74 -76 -73 -144q0 -72 88 -149l164 -144q88 -94 88 -204q0 -117 -87.5 -193t-205.5 -76q-178 1 -178 105q0 63 38 63 q6 0 67.5 -53t100.5 -53q61 0 93 43t32 106q0 94 -86 176q-80 68 -162 136q-86 84 -86 178q0 78 70 157q66 70 131 140q70 90 70 194q0 94 -59.5 162t-153.5 68q-143 0 -211 -217q-43 -145 -43 -334v-822q0 -20 -21 -20h-110q-20 0 -21 20v642q0 41 -2 45q-6 14 -39 14 q-70 0 -49 -2q-33 4 -33 24z" />
<glyph unicode="&#xe0;" horiz-adv-x="942" d="M74 379q0 209 145 336q139 121 350 121q76 0 168 -29q137 -43 137 -74v-713q0 -20 -20 -20h-109q-23 0 -30 53q-117 -82 -242 -82q-180 0 -289.5 114t-109.5 294zM139 1243q0 27 33 54.5t59 27.5q23 0 37 -20q49 -70 107 -181q45 -94 92 -186q2 -6 2 -10q0 -23 -23 -23 q-8 0 -14 6l-258 271q-35 36 -35 61zM221 436q0 -145 93.5 -247.5t236.5 -102.5q71 0 143 37q0 6 4 12q25 41 25 111v387q0 8 -14 24q-96 109 -205 109q-131 0 -211 -102q-72 -92 -72 -228z" />
<glyph unicode="&#xe1;" horiz-adv-x="862" d="M-8 379q0 209 145 336q139 121 350 121q76 0 168 -29q138 -43 138 -74v-713q0 -20 -21 -20h-108q-23 0 -31 53q-117 -82 -242 -82q-180 0 -289.5 114t-109.5 294zM139 436q0 -143 93.5 -246.5t236.5 -103.5q71 0 143 37q0 6 4 12q25 41 25 111v387q0 8 -14 24 q-96 109 -205 109q-131 0 -211 -102q-72 -92 -72 -228zM381 928q0 4 2 10q47 92 92 186q57 111 107 181q14 20 36 20q27 0 60 -27.5t33 -54.5q0 -25 -35 -61l-258 -271q-7 -6 -15 -6q-23 0 -22 23z" />
<glyph unicode="&#xe2;" horiz-adv-x="905" d="M-8 379q0 209 145 336q139 121 350 121q76 0 168 -29q138 -43 138 -74v-713q0 -20 -21 -20h-108q-23 0 -31 53q-117 -82 -242 -82q-180 0 -289.5 114t-109.5 294zM139 436q0 -145 93.5 -247.5t236.5 -102.5q71 0 143 37q0 6 4 12q25 41 25 111v387q0 8 -14 24 q-96 109 -205 109q-131 0 -211 -102q-72 -92 -72 -228zM164 936q0 6 2 12l203 361q16 29 37 28q23 0 38 -28l203 -361q2 -4 2 -8q0 -12 -8 -18q-23 4 -124.5 119.5t-113.5 115.5q-6 0 -26 -24l-176 -209q-8 -8 -19 -9q-18 0 -18 21z" />
<glyph unicode="&#xe3;" horiz-adv-x="854" d="M-29 379q0 209 146 336q139 121 350 121q76 0 168 -29q137 -43 137 -74v-713q0 -20 -20 -20h-109q-23 0 -31 53q-117 -82 -241 -82q-180 0 -290 114t-110 294zM109 946q0 20 30.5 84t46.5 82q39 41 117 41h219q66 0 105 25q23 14 43 47q18 25 30 24q18 0 19 -18 q0 -23 -28.5 -75t-47.5 -71q-37 -37 -104 -36h-220q-70 0 -112 -33q-25 -18 -46.5 -54t-33.5 -36q-18 0 -18 20zM119 436q0 -145 93 -247.5t237 -102.5q71 0 143 37q0 6 4 12q25 41 25 111v387q0 8 -15 24q-96 109 -205 109q-131 0 -211 -102q-72 -92 -71 -228z" />
<glyph unicode="&#xe4;" horiz-adv-x="858" d="M-29 379q0 209 146 336q139 121 350 121q76 0 168 -29q137 -43 137 -74v-713q0 -20 -20 -20h-109q-23 0 -31 53q-117 -82 -241 -82q-180 0 -290 114t-110 294zM119 436q0 -145 93 -247.5t237 -102.5q71 0 143 37q0 6 4 12q25 41 25 111v387q0 8 -15 24q-96 109 -205 109 q-131 0 -211 -102q-72 -92 -71 -228zM127 1083q0 98 96 99q39 0 66.5 -27t27.5 -65q0 -100 -94 -101q-96 0 -96 94zM510 1083q0 43 27.5 71t70.5 28q39 0 65.5 -27t26.5 -65q0 -100 -92 -101q-98 0 -98 94z" />
<glyph unicode="&#xe5;" horiz-adv-x="884" d="M-29 379q0 209 146 336q139 121 350 121q76 0 168 -29q137 -43 137 -74v-713q0 -20 -20 -20h-109q-23 0 -31 53q-117 -82 -241 -82q-180 0 -290 114t-110 294zM119 436q0 -145 93 -247.5t237 -102.5q71 0 143 37q0 6 4 12q25 41 25 111v387q0 8 -15 24q-96 109 -205 109 q-131 0 -211 -102q-72 -92 -71 -228zM209 1139q0 84 60.5 139t144.5 55t144 -55t60 -139t-60 -139.5t-144 -55.5t-144.5 55.5t-60.5 139.5zM305 1139q0 -51 30 -89t79 -38q51 0 79.5 37.5t28.5 89.5q0 51 -29.5 89t-78.5 38t-79 -38t-30 -89z" />
<glyph unicode="&#xe6;" horiz-adv-x="1488" d="M74 379q0 209 145 336q139 121 350 121q78 0 162 -27q98 -31 137 -82q127 109 271 109q113 0 196 -64q94 -72 95 -180q0 -72 -54 -72q-12 0 -37.5 2t-38.5 2h-378q-35 0 -48 -8v-137q0 -23 23 -78q82 -215 309 -215q82 0 140.5 51t60.5 51q23 0 23 -24q0 -72 -125 -135 q-111 -57 -195 -58q-123 0 -236 76q0 -47 -20 -47h-109q-23 0 -30 53q-117 -82 -242 -82q-180 0 -289.5 114t-109.5 294zM221 436q0 -145 93.5 -247.5t236.5 -102.5q71 0 143 37q0 6 4 12q25 41 25 111v387q0 8 -14 24q-96 109 -205 109q-131 0 -211 -102q-72 -92 -72 -228z M889 596q0 -10 14 -10h146q188 0 213 20q12 10 12 39q0 63 -46 96t-112 33q-131 0 -205 -119q-22 -32 -22 -59z" />
<glyph unicode="&#xe7;" horiz-adv-x="856" d="M74 379q0 209 145 336q139 121 350 121q39 0 99 -11q72 -10 88 -28q27 -27 26 -78q0 -23 -12 -49.5t-33 -26.5q-10 0 -80.5 61.5t-152.5 61.5q-131 0 -211 -100q-72 -94 -72 -230q0 -145 93.5 -247.5t236.5 -102.5q76 0 131 31q37 20 72 59q29 33 32 33q27 0 27 -27 q0 -59 -100 -127q-84 -57 -154 -73q-49 -66 -49 -76q0 -6 58.5 -60.5t58.5 -117.5q0 -78 -66.5 -129.5t-146.5 -51.5q-119 0 -119 72q0 53 51 53q23 0 58.5 -29.5t50.5 -29.5q55 0 55 63q0 53 -62.5 96.5t-62.5 53.5q0 6 94 145q-184 0 -294.5 112t-110.5 296z" />
<glyph unicode="&#xe8;" horiz-adv-x="825" d="M72 373q0 188 110 321q117 141 301 142q113 0 197 -64q94 -72 94 -180q0 -72 -53 -72q-12 0 -38 2t-38 2h-379q-39 0 -47 -8t-8 -47q0 -162 88 -268q94 -115 252 -115q82 0 140.5 51t60.5 51q23 0 22 -24q0 -72 -123 -135q-113 -57 -196 -58q-172 0 -277.5 114 t-105.5 288zM176 1243q0 27 33 54.5t59 27.5q23 0 37 -20q49 -70 107 -181q45 -94 92 -186q2 -6 2 -10q0 -23 -23 -23q-8 0 -14 6l-258 271q-35 36 -35 61zM233 596q0 -10 15 -10h145q188 0 213 20q12 10 12 39q0 63 -46 96t-111 33q-131 0 -205 -119q-23 -32 -23 -59z" />
<glyph unicode="&#xe9;" horiz-adv-x="831" d="M72 373q0 188 110 321q117 141 301 142q113 0 197 -64q94 -72 94 -180q0 -72 -53 -72q-12 0 -38 2t-38 2h-379q-39 0 -47 -8t-8 -47q0 -162 88 -268q94 -115 252 -115q82 0 140.5 51t60.5 51q23 0 22 -24q0 -72 -123 -135q-113 -57 -196 -58q-172 0 -277.5 114 t-105.5 288zM233 596q0 -10 15 -10h145q188 0 213 20q12 10 12 39q0 63 -46 96t-111 33q-131 0 -205 -119q-23 -32 -23 -59zM410 928q0 4 2 10q47 92 92 186q57 111 106 181q14 20 37 20q27 0 59.5 -27.5t32.5 -54.5q0 -25 -34 -61l-259 -271q-6 -6 -14 -6q-23 0 -22 23z " />
<glyph unicode="&#xea;" horiz-adv-x="837" d="M72 373q0 188 110 321q117 141 301 142q113 0 197 -64q94 -72 94 -180q0 -72 -53 -72q-12 0 -38 2t-38 2h-379q-39 0 -47 -8t-8 -47q0 -162 88 -268q94 -115 252 -115q82 0 140.5 51t60.5 51q23 0 22 -24q0 -72 -123 -135q-113 -57 -196 -58q-172 0 -277.5 114 t-105.5 288zM205 936q0 6 2 12l203 361q16 29 36 28q23 0 39 -28l203 -361q2 -4 2 -8q0 -12 -8 -18q-23 4 -124.5 119.5t-113.5 115.5q-6 0 -26 -24l-176 -209q-8 -8 -19 -9q-18 0 -18 21zM233 596q0 -10 15 -10h145q188 0 213 20q12 10 12 39q0 63 -46 96t-111 33 q-131 0 -205 -119q-23 -32 -23 -59z" />
<glyph unicode="&#xeb;" horiz-adv-x="831" d="M72 373q0 188 110 321q117 141 301 142q113 0 197 -64q94 -72 94 -180q0 -72 -53 -72q-12 0 -38 2t-38 2h-379q-39 0 -47 -8t-8 -47q0 -162 88 -268q94 -115 252 -115q82 0 140.5 51t60.5 51q23 0 22 -24q0 -72 -123 -135q-113 -57 -196 -58q-172 0 -277.5 114 t-105.5 288zM160 1083q0 98 96 99q39 0 66.5 -27t27.5 -65q0 -100 -94 -101q-96 0 -96 94zM233 596q0 -10 15 -10h145q188 0 213 20q12 10 12 39q0 63 -46 96t-111 33q-131 0 -205 -119q-23 -32 -23 -59zM543 1083q0 43 27.5 71t70.5 28q39 0 65.5 -27t26.5 -65 q0 -100 -92 -101q-98 0 -98 94z" />
<glyph unicode="&#xec;" horiz-adv-x="479" d="M-4 1243q0 27 32.5 54.5t59.5 27.5q23 0 37 -20q49 -70 106 -181q45 -94 93 -186q2 -6 2 -10q0 -23 -23 -23q-8 0 -14 6l-258 271q-35 36 -35 61zM119 745q0 14 16.5 20.5t50.5 20.5q82 35 142 70q8 6 14 6q18 0 18 -24q0 -41 -4 -119q-4 -84 -4 -121l-2 -578 q0 -20 -20 -20h-109q-20 0 -20 20v568q0 68 -11 84q-4 10 -61 53q-10 8 -10 20z" />
<glyph unicode="&#xed;" horiz-adv-x="501" d="M119 745q0 14 16.5 20.5t50.5 20.5q82 35 142 70q8 6 14 6q18 0 18 -24q0 -41 -4 -119q-4 -84 -4 -121l-2 -578q0 -20 -20 -20h-109q-20 0 -20 20v568q0 68 -11 84q-4 10 -61 53q-10 8 -10 20zM209 928q0 4 2 10q47 92 92 186q57 111 107 181q14 20 36 20q27 0 60 -27.5 t33 -54.5q0 -25 -35 -61l-258 -271q-7 -6 -15 -6q-23 0 -22 23z" />
<glyph unicode="&#xee;" horiz-adv-x="491" d="M37 936q0 6 2 12l203 361q16 29 37 28q23 0 38 -28l203 -361q2 -4 2 -8q0 -12 -8 -18q-23 4 -124.5 119.5t-113.5 115.5q-6 0 -26 -24l-176 -209q-8 -8 -19 -9q-18 0 -18 21zM119 745q0 14 16.5 20.5t50.5 20.5q82 35 142 70q8 6 14 6q18 0 18 -24q0 -41 -4 -119 q-4 -84 -4 -121l-2 -578q0 -20 -20 -20h-109q-20 0 -20 20v568q0 68 -11 84q-4 10 -61 53q-10 8 -10 20z" />
<glyph unicode="&#xef;" horiz-adv-x="528" d="M-23 1083q0 98 97 99q39 0 66.5 -27t27.5 -65q0 -100 -94 -101q-97 0 -97 94zM119 745q0 14 16.5 20.5t50.5 20.5q82 35 142 70q8 6 14 6q18 0 18 -24q0 -41 -4 -119q-4 -84 -4 -121l-2 -578q0 -20 -20 -20h-109q-20 0 -20 20v568q0 68 -11 84q-4 10 -61 53q-10 8 -10 20 zM360 1083q0 43 28 71t71 28q39 0 65.5 -27t26.5 -65q0 -100 -92 -101q-99 0 -99 94z" />
<glyph unicode="&#xf0;" horiz-adv-x="1024" d="M72 389q0 182 133 314.5t315 132.5q102 0 199 -45q-47 195 -152 333q-262 -137 -268 -137q-31 0 -31 47q0 16 11 23l245 129q-147 160 -295 211q-27 6 -79 18q-18 6 -19 23q0 27 23 26q31 0 88 -12q213 -45 389 -211q225 117 231 117q35 0 35 -45q0 -16 -12 -23 l-205 -106q240 -270 240 -662q0 -238 -99 -383q-115 -168 -342 -168q-184 0 -295.5 116t-111.5 302zM248 418q0 -141 57 -250q70 -135 199 -135q137 0 203 135q49 102 49 254q0 186 -48.5 269t-195.5 83q-129 0 -203 -119q-61 -100 -61 -237z" />
<glyph unicode="&#xf1;" horiz-adv-x="976" d="M119 745q0 12 16.5 19.5t52.5 23.5q70 31 134 68q8 6 16 6q14 0 16 -33q-2 68 -2 -45q0 -51 23 -53q170 104 287 105q115 0 177 -69t62 -185v-562q0 -20 -20 -20h-115q-20 0 -21 20l5 515q2 203 -193 202q-121 0 -174 -71q-31 -41 -31 -123v-523q0 -20 -20 -20h-115 q-20 0 -20 20q4 580 4 586q0 53 -13 72q-4 6 -59 47q-10 8 -10 20zM231 946q0 20 31 84t47 82q39 41 117 41h219q66 0 105 25q23 14 43 47q18 25 30 24q18 0 19 -18q0 -23 -29 -75t-47 -71q-37 -37 -104 -36h-220q-70 0 -112 -33q-25 -18 -46.5 -54t-33.5 -36q-18 0 -19 20z " />
<glyph unicode="&#xf2;" horiz-adv-x="976" d="M72 393q0 188 125 315.5t311 127.5q180 0 298 -122t118 -302q0 -193 -120 -317t-312 -124q-184 0 -302 119t-118 303zM209 1243q0 27 32.5 54.5t59.5 27.5q23 0 37 -20q49 -70 106 -181q45 -94 93 -186q2 -6 2 -10q0 -23 -23 -23q-8 0 -14 6l-258 271q-35 36 -35 61z M248 420q0 -145 59 -254q72 -133 205 -133q125 0 186 117q49 92 50 229q0 150 -58 258q-72 137 -207 137q-123 0 -186 -123q-49 -96 -49 -231z" />
<glyph unicode="&#xf3;" horiz-adv-x="917" d="M72 393q0 188 125 315.5t311 127.5q180 0 298 -122t118 -302q0 -193 -120 -317t-312 -124q-184 0 -302 119t-118 303zM248 420q0 -145 59 -254q72 -133 205 -133q125 0 186 117q49 92 50 229q0 150 -58 258q-72 137 -207 137q-123 0 -186 -123q-49 -96 -49 -231zM442 928 q0 4 2 10q47 92 93 186q57 111 106 181q14 20 37 20q27 0 59.5 -27.5t32.5 -54.5q0 -25 -35 -61l-258 -271q-6 -6 -14 -6q-23 0 -23 23z" />
<glyph unicode="&#xf4;" horiz-adv-x="989" d="M72 393q0 188 125 315.5t311 127.5q180 0 298 -122t118 -302q0 -193 -120 -317t-312 -124q-184 0 -302 119t-118 303zM248 420q0 -145 59 -254q72 -133 205 -133q125 0 186 117q49 92 50 229q0 150 -58 258q-72 137 -207 137q-123 0 -186 -123q-49 -96 -49 -231zM256 936 q0 6 2 12l203 361q16 29 37 28q23 0 39 -28l202 -361q2 -4 2 -8q0 -12 -8 -18q-23 4 -124 119.5t-113 115.5q-6 0 -27 -24l-176 -209q-8 -8 -19 -9q-18 0 -18 21z" />
<glyph unicode="&#xf5;" horiz-adv-x="989" d="M72 393q0 188 125 315.5t311 127.5q180 0 298 -122t118 -302q0 -193 -120 -317t-312 -124q-184 0 -302 119t-118 303zM190 946q0 20 31 84t47 82q39 41 117 41h219q66 0 105 25q23 14 43 47q18 25 30 24q18 0 19 -18q0 -23 -29 -75t-47 -71q-37 -37 -104 -36h-220 q-70 0 -112 -33q-25 -18 -46.5 -54t-33.5 -36q-18 0 -19 20zM248 420q0 -145 59 -254q72 -133 205 -133q125 0 186 117q49 92 50 229q0 150 -58 258q-72 137 -207 137q-123 0 -186 -123q-49 -96 -49 -231z" />
<glyph unicode="&#xf6;" horiz-adv-x="915" d="M72 393q0 188 125 315.5t311 127.5q180 0 298 -122t118 -302q0 -193 -120 -317t-312 -124q-184 0 -302 119t-118 303zM211 1083q0 98 96 99q39 0 66.5 -27t27.5 -65q0 -100 -94 -101q-96 0 -96 94zM248 420q0 -145 59 -254q72 -133 205 -133q125 0 186 117q49 92 50 229 q0 150 -58 258q-72 137 -207 137q-123 0 -186 -123q-49 -96 -49 -231zM594 1083q0 43 27.5 71t70.5 28q39 0 65.5 -27t26.5 -65q0 -100 -92 -101q-98 0 -98 94z" />
<glyph unicode="&#xf7;" horiz-adv-x="849" d="M119 391v60q0 20 20 20h748q20 0 20 -20v-60q0 -20 -20 -20h-748q-20 0 -20 20zM416 172q0 37 27.5 63.5t64.5 26.5t63.5 -26.5t26.5 -63.5t-26.5 -64.5t-63.5 -27.5q-39 0 -65.5 26.5t-26.5 65.5zM416 672q0 37 27.5 63.5t64.5 26.5t63.5 -26.5t26.5 -63.5t-26.5 -64.5 t-63.5 -27.5q-39 0 -65.5 26.5t-26.5 65.5z" />
<glyph unicode="&#xf8;" horiz-adv-x="931" d="M72 393q0 188 125 315.5t311 127.5q104 0 205 -52q70 100 80 101q14 0 29.5 -11.5t15.5 -25.5q0 -6 -68 -103q154 -131 154 -333q0 -193 -120 -317t-312 -124q-118 1 -220 58q-53 -111 -92 -111q-35 0 -35 35q0 25 29 61q20 27 43 54q-145 125 -145 325zM242 420 q0 -127 53 -240l358 518q-76 76 -170 76q-127 0 -190 -121q-51 -94 -51 -233zM334 119q78 -86 178 -86q129 0 190 114q51 92 52 232q0 135 -58 260z" />
<glyph unicode="&#xf9;" horiz-adv-x="991" d="M80 772q0 25 19.5 27t58.5 4q23 2 82 16q53 14 71 15q18 0 19 -23q0 -14 -2 -44t-2 -44v-422q0 -115 36 -170q43 -65 154 -65q98 0 166 61q41 37 41 119v571q0 29 78 29q82 0 82 -35q0 -8 -3 -25.5t-3 -23.5q-2 -37 -3 -119v-623q0 -20 -20 -20h-109q-14 0 -26 31 q-16 43 -19 45q-166 -104 -278 -105q-248 0 -248 256v205q2 137 2 205q0 53 -24 80q-12 14 -48 28q-25 12 -24 27zM229 1243q0 27 33 54.5t60 27.5q23 0 36 -20q49 -70 107 -181q45 -94 92 -186q2 -6 2 -10q0 -23 -22 -23q-8 0 -15 6l-258 271q-35 36 -35 61z" />
<glyph unicode="&#xfa;" horiz-adv-x="948" d="M80 772q0 25 19.5 27t58.5 4q23 2 82 16q53 14 71 15q18 0 19 -23q0 -14 -2 -44t-2 -44v-422q0 -115 36 -170q43 -65 154 -65q98 0 166 61q41 37 41 119v571q0 29 78 29q82 0 82 -35q0 -8 -3 -25.5t-3 -23.5q-2 -37 -3 -119v-623q0 -20 -20 -20h-109q-14 0 -26 31 q-16 43 -19 45q-166 -104 -278 -105q-248 0 -248 256v205q2 137 2 205q0 53 -24 80q-12 14 -48 28q-25 12 -24 27zM469 928q0 4 2 10q47 92 92 186q57 111 107 181q14 20 37 20q27 0 59.5 -27.5t32.5 -54.5q0 -25 -35 -61l-258 -271q-6 -6 -14 -6q-23 0 -23 23z" />
<glyph unicode="&#xfb;" horiz-adv-x="993" d="M80 772q0 25 19.5 27t58.5 4q23 2 82 16q53 14 71 15q18 0 19 -23q0 -14 -2 -44t-2 -44v-422q0 -115 36 -170q43 -65 154 -65q98 0 166 61q41 37 41 119v571q0 29 78 29q82 0 82 -35q0 -8 -3 -25.5t-3 -23.5q-2 -37 -3 -119v-623q0 -20 -20 -20h-109q-14 0 -26 31 q-16 43 -19 45q-166 -104 -278 -105q-248 0 -248 256v205q2 137 2 205q0 53 -24 80q-12 14 -48 28q-25 12 -24 27zM283 936q0 6 2 12l202 361q16 29 37 28q23 0 39 -28l203 -361q2 -4 2 -8q0 -12 -8 -18q-23 4 -124.5 119.5t-113.5 115.5q-6 0 -26 -24l-177 -209 q-8 -8 -18 -9q-18 0 -18 21z" />
<glyph unicode="&#xfc;" horiz-adv-x="995" d="M80 772q0 25 19.5 27t58.5 4q23 2 82 16q53 14 71 15q18 0 19 -23q0 -14 -2 -44t-2 -44v-422q0 -115 36 -170q43 -65 154 -65q98 0 166 61q41 37 41 119v571q0 29 78 29q82 0 82 -35q0 -8 -3 -25.5t-3 -23.5q-2 -37 -3 -119v-623q0 -20 -20 -20h-109q-14 0 -26 31 q-16 43 -19 45q-166 -104 -278 -105q-248 0 -248 256v205q2 137 2 205q0 53 -24 80q-12 14 -48 28q-25 12 -24 27zM238 1083q0 98 96 99q39 0 66.5 -27t27.5 -65q0 -100 -94 -101q-96 0 -96 94zM621 1083q0 43 27.5 71t70.5 28q39 0 65.5 -27t26.5 -65q0 -100 -92 -101 q-98 0 -98 94z" />
<glyph unicode="&#xfd;" horiz-adv-x="882" d="M0 786q0 27 23 27h229q12 0 18 -14q16 -51 47 -148q57 -174 105 -307q41 -116 70 -149v4q0 10 65 151l207 445q6 12 18 12h136q23 0 22 -25q0 -16 -23.5 -23t-46.5 -14q-51 -25 -92 -90q-6 -12 -57 -116q-225 -463 -451 -953q-43 -92 -98 -92q-18 0 -18 17q0 6 4 14 q47 92 139 274q23 41 59 125q20 55 21 88q0 45 -35 142q-57 170 -184 501q-27 63 -68 86q-16 8 -63 17q-27 6 -27 28zM469 928q0 4 2 10q47 92 92 186q57 111 107 181q14 20 37 20q27 0 59.5 -27.5t32.5 -54.5q0 -25 -35 -61l-258 -271q-6 -6 -14 -6q-23 0 -23 23z" />
<glyph unicode="&#xfe;" horiz-adv-x="974" d="M63 1319q0 12 13 20q8 2 78 27q78 27 133 53q8 2 12 2q18 0 18 -22q0 -39 -4 -115t-4 -115v-403q0 -20 15 -27q188 96 286 97q152 0 246 -107.5t94 -261.5q0 -215 -139 -355.5t-354 -140.5q-72 0 -119 9q-29 -6 -29 -58v-442q0 -20 -20 -21h-111q-20 0 -20 21v1685 q0 55 -17 78q-8 10 -63 49q-14 12 -15 27zM309 207q0 -78 72 -125q63 -43 145 -43q129 0 199 119q59 98 59 235q0 139 -67 236q-76 109 -209 108q-125 0 -174 -57q-25 -29 -25 -121v-352z" />
<glyph unicode="&#xff;" horiz-adv-x="876" d="M0 786q0 27 23 27h229q12 0 18 -14q16 -51 47 -148q57 -174 105 -307q41 -116 70 -149v4q0 10 65 151l207 445q6 12 18 12h136q23 0 22 -25q0 -16 -23.5 -23t-46.5 -14q-51 -25 -92 -90q-6 -12 -57 -116q-225 -463 -451 -953q-43 -92 -98 -92q-18 0 -18 17q0 6 4 14 q47 92 139 274q23 41 59 125q20 55 21 88q0 45 -35 142q-57 170 -184 501q-27 63 -68 86q-16 8 -63 17q-27 6 -27 28zM203 1083q0 98 96 99q39 0 66.5 -27t27.5 -65q0 -100 -94 -101q-96 0 -96 94zM586 1083q0 43 27.5 71t70.5 28q39 0 65.5 -27t26.5 -65q0 -100 -92 -101 q-98 0 -98 94z" />
<glyph unicode="&#x152;" horiz-adv-x="2021" d="M94 666q0 326 246 518q225 174 561 174q59 0 176 -3t174 -3h424q33 0 98.5 2t98.5 2q18 0 22 -17q27 -90 27 -241q0 -25 -29 -25q-20 0 -34 45q-20 63 -37 88q-37 53 -107 72q-41 10 -198 10h-148q-47 0 -55 -16q-4 -8 -4 -66v-411q0 -41 10 -48.5t55 -7.5h119 q145 0 174 11q39 14 53 94q14 74 37 74q29 0 29 -23q0 -33 -4 -98.5t-4 -98.5t4 -96t4 -94q0 -20 -27 -21q-20 0 -30 31q-6 25 -13 49q-20 74 -59 90q-25 10 -113 11h-170q-45 0 -55 -7.5t-10 -48.5v-288q0 -186 57 -228q45 -33 242 -33q154 0 194 13q86 23 146 121 q16 29 49 90q8 10 22 10q31 0 31 -23q0 -20 -36 -133.5t-48 -134.5q-8 -12 -20 -12q-88 0 -266.5 3t-268.5 3h-125q-68 0 -202 -6t-201 -6q-336 0 -551 168q-238 184 -238 510zM299 674q0 -127 41 -246q129 -377 561 -377q123 0 181.5 32t58.5 169v870q0 127 -54 148 q-61 24 -196 24q-291 0 -441.5 -163.5t-150.5 -456.5z" />
<glyph unicode="&#x153;" horiz-adv-x="1515" d="M72 393q0 188 123.5 315.5t312.5 127.5q201 0 321 -179q131 178 324 179q119 0 205 -62q98 -70 98 -182q0 -41 -10 -52.5t-49 -15.5h-88h-363q-39 0 -49 -20q-6 -12 -6 -58q0 -154 90 -256q94 -109 246 -108q72 0 119 27q29 16 55 49q23 27 33 26q25 0 24 -20 q0 -82 -125 -141q-104 -51 -194 -52q-197 0 -318 170q-125 -170 -332 -170q-186 0 -301.5 118t-115.5 304zM248 418q0 -137 61 -250q72 -135 199 -135t190 117q49 92 50 229q0 150 -58 258q-72 137 -209 137q-119 0 -182 -125q-51 -100 -51 -231zM920 602q0 -16 53 -16h133 q164 0 182 18q12 12 12 41q0 61 -47 95t-110 34q-74 0 -146 -49q-77 -53 -77 -123z" />
<glyph unicode="&#x178;" horiz-adv-x="1308" d="M-14 1327q0 25 22 25q45 0 136.5 -4.5t136.5 -4.5q10 0 18 -12l33 -65l76 -152q76 -156 235 -461l277 473q55 94 88 154q10 20 32 61q8 10 19 11h55q39 -2 57 -2q72 0 58 2q23 -2 22 -25q0 -18 -25.5 -23.5t-45.5 -9.5q-74 -20 -133 -100q-27 -37 -134 -221l-129 -223 q-66 -113 -79 -160q-16 -55 -17 -172v-398q0 -20 -20 -20h-127q-20 0 -21 20v396q0 86 -11 129t-54 125l-242 471q-37 72 -53 92q-33 43 -86 57q-23 4 -72 15q-16 6 -16 22zM326 1548q0 47 28.5 78t73.5 31q41 0 70.5 -31t29.5 -72q0 -45 -27.5 -75.5t-72.5 -30.5 q-102 0 -102 100zM729 1548q0 45 29.5 77t75.5 32q41 0 69.5 -31t28.5 -72q0 -45 -26.5 -75.5t-71.5 -30.5q-105 0 -105 100z" />
<glyph unicode="&#x2c6;" horiz-adv-x="622" d="M127 936q0 6 2 12l203 361q16 29 37 28q23 0 39 -28l202 -361q2 -4 2 -8q0 -12 -8 -18q-23 4 -124 119.5t-113 115.5q-6 0 -27 -24l-176 -209q-8 -8 -19 -9q-18 0 -18 21z" />
<glyph unicode="&#x2dc;" horiz-adv-x="661" d="M61 946q0 20 31 84t47 82q39 41 117 41h219q66 0 105 25q23 14 43 47q18 25 30 24q18 0 19 -18q0 -23 -29 -75t-47 -71q-37 -37 -104 -36h-220q-70 0 -112 -33q-25 -18 -46.5 -54t-33.5 -36q-18 0 -19 20z" />
<glyph unicode="&#x2000;" horiz-adv-x="861" />
<glyph unicode="&#x2001;" horiz-adv-x="1722" />
<glyph unicode="&#x2002;" horiz-adv-x="861" />
<glyph unicode="&#x2003;" horiz-adv-x="1722" />
<glyph unicode="&#x2004;" horiz-adv-x="574" />
<glyph unicode="&#x2005;" horiz-adv-x="430" />
<glyph unicode="&#x2006;" horiz-adv-x="287" />
<glyph unicode="&#x2007;" horiz-adv-x="287" />
<glyph unicode="&#x2008;" horiz-adv-x="215" />
<glyph unicode="&#x2009;" horiz-adv-x="344" />
<glyph unicode="&#x200a;" horiz-adv-x="95" />
<glyph unicode="&#x2010;" d="M66 410q0 49 26 51l459 45q39 2 39 -66q0 -49 -27 -51l-459 -45q-16 0 -27 23.5t-11 42.5z" />
<glyph unicode="&#x2011;" d="M66 410q0 49 26 51l459 45q39 2 39 -66q0 -49 -27 -51l-459 -45q-16 0 -27 23.5t-11 42.5z" />
<glyph unicode="&#x2012;" d="M66 410q0 49 26 51l459 45q39 2 39 -66q0 -49 -27 -51l-459 -45q-16 0 -27 23.5t-11 42.5z" />
<glyph unicode="&#x2013;" horiz-adv-x="1048" d="M0 391v60q0 20 20 20h984q20 0 20 -20v-60q0 -20 -20 -20h-984q-20 0 -20 20z" />
<glyph unicode="&#x2014;" horiz-adv-x="2072" d="M0 391v60q0 20 20 20h2008q20 0 20 -20v-60q0 -20 -20 -20h-2008q-20 0 -20 20z" />
<glyph unicode="&#x2018;" horiz-adv-x="432" d="M113 1165q0 90 78.5 183.5t156.5 93.5q23 0 23 -27q0 -10 -13 -18q-74 -43 -98 -66q-49 -47 -49 -106q0 -63 41 -90q37 -14 77 -28.5t40 -53.5q0 -84 -99 -84q-70 0 -116 65q-41 59 -41 131z" />
<glyph unicode="&#x2019;" horiz-adv-x="471" d="M111 985q0 14 41 39q55 33 77 55q41 41 41 99q0 63 -41 90q-37 14 -76.5 28.5t-39.5 53.5q0 84 98 84q70 0 117 -66q41 -59 41 -131q0 -86 -74 -178q-80 -98 -162 -98q-22 -1 -22 24z" />
<glyph unicode="&#x201a;" horiz-adv-x="401" d="M90 -244q0 14 41 39q55 33 78 55q41 41 41 99q0 63 -41 90q-37 14 -77 28.5t-40 53.5q0 84 98 84q72 0 117 -66q39 -57 39 -131q0 -86 -72 -178q-78 -98 -161 -98q-23 -1 -23 24z" />
<glyph unicode="&#x201c;" horiz-adv-x="778" d="M113 1165q0 90 78.5 183.5t156.5 93.5q23 0 23 -27q0 -10 -13 -18q-74 -43 -98 -66q-49 -47 -49 -106q0 -63 41 -90q37 -14 77 -28.5t40 -53.5q0 -84 -99 -84q-70 0 -116 65q-41 59 -41 131zM459 1165q0 90 78.5 183.5t156.5 93.5q23 0 23 -27q0 -10 -12 -18 q-74 -43 -99 -66q-49 -47 -49 -106q0 -63 41 -90q37 -14 77 -28.5t40 -53.5q0 -84 -99 -84q-70 0 -116 65q-41 59 -41 131z" />
<glyph unicode="&#x201d;" horiz-adv-x="817" d="M111 985q0 14 41 39q55 33 77 55q41 41 41 99q0 63 -41 90q-37 14 -76.5 28.5t-39.5 53.5q0 84 98 84q70 0 117 -66q41 -59 41 -131q0 -86 -74 -178q-80 -98 -162 -98q-22 -1 -22 24zM457 985q0 14 41 39q55 33 77 55q41 41 41 99q0 63 -41 90q-37 14 -76.5 28.5 t-39.5 53.5q0 84 98 84q70 0 117 -66q41 -59 41 -131q0 -86 -74 -178q-80 -98 -162 -98q-22 -1 -22 24z" />
<glyph unicode="&#x201e;" horiz-adv-x="747" d="M90 -244q0 14 41 39q55 33 78 55q41 41 41 99q0 63 -41 90q-37 14 -77 28.5t-40 53.5q0 84 98 84q72 0 117 -66q39 -57 39 -131q0 -86 -72 -178q-78 -98 -161 -98q-23 -1 -23 24zM436 -244q0 14 41 39q55 33 78 55q41 41 41 99q0 63 -41 90q-37 14 -77 28.5t-40 53.5 q0 84 99 84q72 0 116 -66q39 -57 39 -131q0 -86 -71 -178q-78 -98 -162 -98q-23 -1 -23 24z" />
<glyph unicode="&#x2022;" horiz-adv-x="784" d="M113 688q0 119 83 202t201 83q119 0 202 -83t83 -202t-83 -200.5t-202 -81.5t-201.5 81.5t-82.5 200.5z" />
<glyph unicode="&#x2026;" horiz-adv-x="1898" d="M227 84q0 51 32 86t83 35t83 -35t32 -86t-32 -82t-83 -31q-49 0 -82 32t-33 81zM909 84q0 51 32 86t83 35t83 -35t32 -86t-32 -82t-83 -31q-49 0 -82 32t-33 81zM1591 84q0 51 32 86t83 35t83 -35t32 -86t-32 -82t-83 -31q-49 0 -82 32t-33 81z" />
<glyph unicode="&#x202f;" horiz-adv-x="344" />
<glyph unicode="&#x2039;" horiz-adv-x="485" d="M92 422q0 14 14 31q86 104 146 180q29 41 90 117q6 6 14 6q27 0 27 -25q0 -14 -73.5 -148t-73.5 -161q0 -12 6 -25q141 -285 141 -288q0 -25 -27 -25q-8 0 -14 8q-31 37 -89 113t-147 184q-14 19 -14 33z" />
<glyph unicode="&#x203a;" horiz-adv-x="380" d="M94 731q0 25 27 25q8 0 14 -6q31 -39 90.5 -116t145.5 -181q14 -16 14 -31q0 -14 -14 -33q-88 -109 -146 -182q-29 -39 -90 -115q-6 -8 -14 -8q-25 0 -25 25q0 6 140 288q6 12 6 25q0 27 -74 161t-74 148z" />
<glyph unicode="&#x205f;" horiz-adv-x="430" />
<glyph unicode="&#x2122;" horiz-adv-x="1746" d="M49 1307q18 78 27 104q4 16 14 16q6 0 18.5 -5t16.5 -7q33 -6 70 -14h247h263q174 2 262 2q14 0 20 -17q82 -281 230 -468l4 -3q25 29 71 119q33 66 68 131q27 51 76 156q8 23 24 68q6 14 41 14q8 0 27 -2h24h50q47 6 51 6q35 0 35 -29q0 -14 -33 -16q-23 -2 -45 -2 q-45 -6 -45 -84q0 -274 8 -422q2 -35 6 -45q6 -20 26.5 -27.5t20.5 -21.5q0 -20 -22 -21q-98 0 -113 2q-20 2 -23 33q2 -20 2 47v78v78v74q0 96 -6 184q-43 -49 -88 -131q-35 -72 -71 -141q-45 -86 -74 -146q-10 -20 -29 -59q-8 -16 -20 -17q-10 0 -19 17q-16 41 -55 123 t-125 247q-33 66 -63 109q-6 -27 -11.5 -140.5t-5.5 -193.5q0 -63 2 -72q6 -39 39 -51q18 -6 19 -20q0 -18 -25 -19q16 0 -61 0h-43q-29 -2 -43 -2q-23 0 -23 21q0 14 18 20q47 14 52 74q23 233 28 508l-393 -6q-27 0 -32 -5t-5 -34v-555q0 -20 -20 -21h-72q-20 0 -20 21 v567q0 27 -37 27h-60q-98 0 -139 -56q-8 -14 -18 -14q-20 0 -21 21zM852 1401l37 2z" />
<glyph unicode="&#x25fc;" horiz-adv-x="808" d="M0 0v809h809v-809h-809z" />
</font>
</defs>
</svg>
